<svg version="1.2" xmlns="http://www.w3.org/2000/svg" viewBox="0 0 1920 1080" width="1920" height="1080">
	<title>WRD_SplashScreen</title>
	<style>
		.s0 { fill: #ffffff } 
		.s1 { fill: #000000 } 
	</style>
	<g id="WRD_Logo">
		<rect width="1920" height="1080" id="BG" style="fill: #000000"/>
		<path id="DEVELOPED BY" fill-rule="evenodd" class="s0" d="m604.3 401.8h12c7.9-0.2 14.8 6 14.6 13.6 0.2 7.6-6.7 13.8-14.6 13.6h-12zm8.5 7.5v12.2h3.2q2.6 0 4.4-1.8 1.9-1.7 1.9-4.3 0-2.6-1.9-4.3-1.8-1.8-4.4-1.8zm82 0.1h-14.4v2.2h13.4v7.2h-13.4v2.6h14.6v7.6h-23.1v-27.2h22.9zm60 19.6h-11l-10-27.2h10.1l5.4 17.3 5.5-17.3h10.1zm72.9-19.6h-14.4v2.2h13.4v7.2h-13.4v2.6h14.6v7.6h-23.1v-27.2h22.9zm49.1 12.1h12.7v7.5h-21.2v-27.2h8.5zm66-20q4.1 0 7.4 1.9 3.4 1.8 5.3 5.1c1.3 2.1 2 4.5 2 7 0 5.1-2.8 9.6-7.3 12.1q-3.3 1.9-7.4 1.9c-5.2 0-10-2.7-12.6-7-1.3-2.1-2-4.5-2-7 0-5.1 2.8-9.7 7.3-12.1q3.4-1.9 7.3-1.9zm-4.2 18.3q1.7 1.8 4.3 1.8c2.2 0 4.1-1.2 5.1-3 0.9-1.9 0.9-4.3 0-6.1-1-1.9-2.9-3.1-5.2-3.1-3.4 0-5.8 2.7-5.8 6.1q0.1 2.6 1.6 4.3zm59.9-17.9h12.2c8.4 0 12.2 3.1 12.2 10 0 6.7-3.9 9.8-12.1 9.8h-3.8v7.4h-8.5zm8.5 7.3v6h3.4c2.5 0 3.7-0.9 3.7-3 0-2.1-1.1-3-3.8-3zm79.6 0.3h-14.4v2.2h13.4v7.2h-13.4v2.6h14.6v7.6h-23v-27.2h22.8zm40.6-7.6h12c7.9-0.1 14.8 6 14.6 13.7 0.2 7.5-6.7 13.7-14.6 13.5h-12zm8.5 7.6v12.1h3.2q2.6 0 4.4-1.7 1.9-1.8 1.9-4.4 0-2.5-1.9-4.3-1.8-1.7-4.4-1.7zm91.6-7.6h15.2c5.6 0 8.9 2.4 8.9 7 0 2.8-1.2 4.9-3.8 6 3.3 1.1 4.8 3.8 4.8 6.7 0 3.8-2.2 7.6-9.3 7.6h-15.8zm8.4 10.6h4.3q2.6 0.1 2.6-1.9 0-1.9-2.6-1.9h-4.3zm0 9.7h5.2c3.7 0.2 3.7-4.3 0-4.1h-5.2zm72.9-2.3v9.2h-8.5v-9.1l-10.6-18.1h10.2l4.7 9.1 4.8-9.1h10z"/>
		<path id="Logo BG Element" fill-rule="evenodd" class="s0" d="m596 436.7c2.2-0.6 4.6-0.7 6.9-0.7 239.6 0 479.1 0.1 718.7 0 10.8-0.4 19.8 9.4 19.7 19.9 0.1 66.6 0 133.1 0.1 199.7 0 7.9-5.8 14.6-12.5 18.1-5.1 2.6-10.9 1.7-16.4 1.9q-355.5 0-711.1 0c-7.5 0.2-14.2-4.6-18.5-10.4-3.5-5.5-3-12.4-3-18.7q0.1-94.5 0-189c-0.2-9.5 6.2-19.5 16.1-20.8zm528.2 19.8c-2 1.7-3.7 4.1-3.2 6.9 0 61.6 0 123.1 0.1 184.7-0.1 4.4 3.9 8 8.2 7.9 62.1 0.1 124.2 0 186.3 0.1 4.1 0 8.4-3.9 8.2-8.2 0.2-61.5 0.1-123 0.1-184.5 0.4-4.5-3.7-9.1-8.4-8.5-61.5-0.1-123 0-184.5 0-2.3 0.2-5.1-0.3-6.8 1.6z"/>
		<path id="WEREHOG  R&amp;D©ini" fill-rule="evenodd" class="s1" d="m682.9 479.7h18.1l-18.6 70.3h-15.8l-10.5-45.5h-0.2l-10.6 45.5h-16.2l-18.2-70.3h18.3l9.4 45.7h0.2l10.3-45.7h13.8l10.2 45.9h0.2zm65.1 54.5v15.8h-39v-70.3h39v15.8h-21.8v10.9h21.2v15.8h-21.2v12zm46.2-8.2l19 24h-20.5l-16.2-22.7h-0.2v22.7h-17.2v-70.3h22.2q4.8 0 7.7 0.2 3.1 0.2 7.1 1.4 4 1.1 6.9 3.4 8.6 7 8.6 19.2 0 8.4-4.7 14.6-4.7 6.2-12.7 7.5zm0.2-21q0-4.9-3.3-7.2-3.2-2.3-8.3-2.3h-6.5v19.5h6.4q5.4 0 8.5-2.4 3.2-2.5 3.2-7.6zm65.8 29.2v15.8h-39.1v-70.3h39.1v15.8h-21.9v10.9h21.2v15.8h-21.2v12zm70-54.5v70.3h-17.9v-28.1h-23v28.1h-18v-70.3h18v26.4h23v-26.4zm83.9 35.1q0 15.5-10.9 26.1-10.8 10.4-26.4 10.4-15.1 0-26-10.2-10.9-10.4-10.9-25.4 0-8 2.7-15 1.5-3.8 4.6-7.9 11-14.4 29.7-14.4 15.5 0 26.3 10.5 10.9 10.5 10.9 25.9zm-18 0.1q0-8.4-5.4-14.6-5.3-6.2-13.7-6.2-8.4 0-13.8 6.1-5.4 6-5.4 14.4 0 8.7 5.4 14.9 5.5 6 14 6 8.3 0 13.6-6 5.3-6.2 5.3-14.6zm99.5-1.2q0 16.1-10.8 27-10.6 10.7-26.7 10.7-15.6 0-26.5-10.6-10.9-10.7-10.9-26.3 0-15.5 10.9-25.8 11.1-10.3 26.7-10.3 11.7 0 21.9 6.9 10.2 6.9 13.3 17.9h-20.1q-5.2-9.1-15.5-9.1-8.5 0-13.9 6-5.3 5.9-5.3 14.4 0 9 5.2 15.1 5.3 6 14.1 6 6 0 10.6-2.8 4.6-2.9 6.2-8.5h-21v-14.3h41.7q0.1 1.2 0.1 3.7zm-305.3 97.3l19.1 24h-20.6l-16.2-22.7h-0.2v22.7h-17.2v-70.3h22.2q4.8 0 7.7 0.2 3.1 0.2 7.1 1.4 4 1.1 6.9 3.4 8.6 7 8.6 19.2 0 8.4-4.7 14.6-4.7 6.2-12.7 7.5zm0.2-21q0-4.9-3.3-7.2-3.2-2.3-8.2-2.3h-6.6v19.5h6.4q5.4 0 8.5-2.4 3.2-2.5 3.2-7.6zm73 3.7h16.6l-5.4 13q-2.3 5.4-5.3 9.3l9.6 9.9-10.7 10.5-8.3-8.5q-9.9 8.5-21 8.5-9.3 0-16.4-5.7-7.1-5.7-7.1-14.7 0-6.4 3.4-10.7 3.4-4.3 9.6-8.6-6.6-6.8-6.6-15.2 0-7.9 5.7-13 5.8-5.1 13.8-5.1 7.7 0 13 4.9 5.4 4.8 5.4 12.3 0 9.5-9.7 16.2l8.3 8.4zm-18-13.2q0-1.9-1.1-3.1-1.1-1.3-3-1.3-1.9 0-3.1 1.3-1.1 1.3-1.1 3.3 0 3.5 3.9 7.6 4.4-4.3 4.4-7.8zm3.9 37l-11.2-11.3q-1.7 1.3-2.7 2.3-0.9 0.9-1.9 2.5-0.8 1.7-0.8 3.4 0 3.2 2.4 5.1 2.3 1.8 5.7 1.8 5.3 0 8.5-3.8zm99.7-17.9q0 17.2-9.4 26.4-9.4 9-26.8 9h-24.6v-70.3h23.2q10.8 0 18.1 2.7 7.4 2.7 13 10.4 6.5 9 6.5 21.8zm-18 0.3q0-8.8-4.3-14.1-4.1-5.3-12.8-5.3h-7.8v38.7h7.7q8.9 0 13-5.1 4.2-5.1 4.2-14.2zm35.9 25.4q0 2.8-1.9 4.8-2 1.9-4.7 1.9-2.8 0-4.8-1.9-1.9-2-1.9-4.8 0-2.8 1.9-4.7 2-2 4.8-2 2.8 0 4.7 2 1.9 2 1.9 4.7zm-2.9 3.8q1.5-1.6 1.5-3.8 0-2.2-1.5-3.7-1.5-1.6-3.7-1.6-2.3 0-3.8 1.5-1.5 1.6-1.5 3.8 0 2.2 1.5 3.8 1.6 1.6 3.8 1.6 2.2 0 3.7-1.6zm-2.1-3.1h1.8q-0.1 1.5-1 2.3-1 0.9-2.4 0.9-1.7 0-2.7-1.1-1-1.1-1-2.8 0-1.7 1-2.8 1-1.1 2.7-1.1 1.3 0 2.3 0.7 1 0.8 1 2.1h-1.8q-0.3-1.2-1.5-1.2-0.9 0-1.4 0.7-0.4 0.6-0.4 1.6 0 1 0.4 1.6 0.5 0.7 1.4 0.7 0.7 0 1.1-0.4 0.3-0.5 0.5-1.2zm9.3-7.1v2.2h-2.9v-2.2zm0 3.2v9.7h-2.9v-9.7zm11.1 3.6v6.1h-2.9v-5.3q0-1-0.4-1.5-0.3-0.5-1.2-0.5-0.9 0-1.3 0.5-0.3 0.6-0.3 1.5v5.3h-2.9v-9.7h2.7v1q0.9-1.3 2.7-1.3 0.6 0 1.3 0.2 0.7 0.2 1.1 0.6 1.2 0.9 1.2 3.1zm4.9-6.8v2.2h-2.9v-2.2zm0 3.2v9.7h-2.9v-9.7z"/>
		<g id="WRnD_Icon_Shapes">
			<path id="W-Element" fill-rule="evenodd" class="s0" d="m1182.9 481.5q8.8 0 17.6 0c3.5 0 7.2 0.3 10.4 1.7 1.1 0.4 2 1.1 3.1 1.5 11.1-2.6 22.6-3.5 34-2.2 7.5 1 14.7 3.3 21.7 6.4 6.7 3.1 13.3 6.7 19.3 11.1 8.7 6.5 16 15.4 19.1 26 1.1 3.4 1 7 1.4 10.5-4.8-2.3-9.8-4.3-14.9-6 8.2 5.6 14.7 13.7 18.1 23.1 2.4 6.2 3.7 12.9 3.7 19.6-0.1 2.2-0.1 4.7-1.7 6.4-0.9 1.1-2.4 1.2-3.7 1.5-8.4-6.8-18.7-10.8-29.2-12.7 6.5 5.3 11.3 12.4 14.7 20.1 3.8 9 5.6 18.9 5.3 28.7-0.2 3.5-0.5 7.1-1.7 10.5-0.9 2.5-2.9 4.4-4.4 6.6-1.9-2.7-3.8-5.5-6.2-7.8-3.2-3.3-7.1-5.8-11.1-7.9-4.6 5.6-11.3 9.2-18.3 10.7-4.8 1.1-9.8 0.9-14.8 0.9q-6.4 0-12.8 0 1.6-8.9 3.2-17.8c-14.4 6.3-30.5 8.3-46 6.5-10.6-1.2-20.9-3.9-30.6-8.2-4.2-1.8-8.5-4-11.7-7.5-1.7-1.7-2.8-3.8-4.2-5.7-2.5-1.1-5.2-2.2-7.2-4.2-2.7-2.5-4.7-6-4.8-9.7-0.1-2.1 0.9-4.1 2.5-5.4 2.3-2 5.6-2.6 8.6-2.3 2 0.9 3.9 2.2 5.8 3.3-1.9-5.5-2.6-11.4-2.8-17.3-0.1-6.2 1.1-12.4 0.9-18.7-0.4-1.3-1.2-2.5-1.8-3.8-2.5-5.4-4.7-11.1-5.7-17-0.6-3.7-0.7-7.6 0.8-11.1 0.9-2.5 2.9-4.4 4.6-6.3 2.8 2.5 5.6 5 9.1 6.5 5.4 2.4 11.7 2.9 17.4 1.4 2.2-1.8 3.9-3.9 6.1-5.7 0.8-0.8 2-1.4 2-2.7 1.4-7.7 2.9-15.3 4.2-23zm1.1 1.4q-2 11-4 22c-0.1 0.6-0.3 1.3-0.9 1.7-2.4 2.1-4.7 4.3-6.9 6.6-0.5 0.4-0.9 0.9-1.5 1-3.6 0.8-7.4 0.9-11 0.4-5.9-0.7-11.3-3.8-15.5-8-1.4 1.6-2.9 3.3-3.7 5.4-1.2 3-1.2 6.4-0.7 9.5 1.1 7.4 4.1 14.3 7.5 20.9 0.3 0.7 0.2 1.4 0.2 2.1-0.1 2.4-0.2 4.8-0.4 7.1-1.1 10.2-0.8 21 3.5 30.4-2.2-1.4-4.5-2.6-6.7-3.9-0.9-0.5-1.9-1.2-3-1.1-3.2-0.1-6.9 1.3-8.1 4.5-1.1 3.3 0.6 6.8 2.6 9.4 2.2 2.8 5.5 4.3 8.8 5.6 2.3 4.3 5.6 8.1 10 10.5 7.6 4.1 15.8 6.8 24.2 8.8 19.6 4.5 40.8 3.2 59.1-5.6q-1.7 9.4-3.4 18.7c6.3 0 12.7 0.1 19.1-0.1 9.4-0.2 18.9-4.2 24.8-11.7 7.1 3.4 13.5 8.4 17.7 15.1 1.2-1.6 2.5-3 3.2-4.9 0.8-2 1.2-4.1 1.4-6.2 1-9.5-0.4-19.3-3.5-28.3-3.7-10.5-10.2-20.4-19.8-26.4 11.9 1.5 23.8 5.3 33.4 12.7 1.4 1.4 3.8 0 4.3-1.7 0.6-2.3 0.5-4.8 0.4-7.2-0.5-8.4-3-16.7-7.2-23.9-5.3-8.9-13.7-16-23.4-19.6 8.2 1.5 16.1 4.4 23.6 7.8-0.2-2.5-0.2-5-0.9-7.4-2.2-8.2-7.2-15.4-13.2-21.3-7.2-6.7-15.8-11.7-24.7-15.7-7-3.1-14.3-5.5-21.8-6.5-11.2-1.1-22.6-0.3-33.6 2.4-0.6 0.2-1.2-0.4-1.7-0.6-3.2-2-7.1-2.4-10.8-2.5-5.8-0.1-11.6 0-17.4 0zm31.4 5.3c8.8-2 17.9-3 26.9-2.4 10.6 0.2 20.8 3.9 30.2 8.5 8.1 4.1 15.9 9 22.1 15.7 5.3 5.8 9.6 12.8 10.8 20.6-8.9-3.7-18.3-6.6-27.9-7.1-3.8-0.1-7.7 0.2-11.3 1.4 8.4 0.9 17 3 24.3 7.5 8.7 5 15.4 13.2 18.8 22.6 1.5 3.8 2.5 7.9 3.1 12 0.3 3.4 0.7 6.9-0.2 10.2-10.3-7.7-22.8-11.9-35.5-13.3-2.8-0.1-5.6-0.6-8.3 0.3 1.1 0.9 2.4 1.3 3.6 2 6.2 3.3 11.6 8.1 15.6 13.9 5.8 8.2 9.1 18 10.2 27.9 0.5 4.9 0.6 10-0.3 15-0.3 1.8-0.8 3.5-1.7 5.1-4.2-5.7-10.1-10-16.4-13.1 3.2-5.4 5.6-11.5 5.8-17.9 0.2-6.3-1.8-12.9-6.4-17.4-4.3-4.1-10.5-5.4-16.3-5.5-6.2 0-12.3 0-18.5 0q-0.2 0.9-0.3 1.8c-1.4-2-3-3.8-4.5-5.8 3.8-4.3 6.3-9.5 9.4-14.4q-0.8-1.3-1.6-2.7c-4.1 0-8.2 0-12.3 0-1.4 2.2-2.8 4.4-4.2 6.7q-0.9-1.2-1.8-2.4c3.2-2.4 6.2-5.5 7.3-9.4 1.1-3.5 1-7.4-1.1-10.4-2-3.1-5.5-5-9.1-5.2-6.3-0.6-12.7 2.5-16.3 7.6-3.3 4.7-3.8 11.4-0.7 16.4-2.9 2-5.8 4.2-8 7.1-2.4 3.6-3.5 8.4-2.4 12.7 0.9 3.3 3.4 5.8 6.3 7.5 3.9 2.2 8.6 2.6 13 1.8 4-0.7 7.6-2.5 11-4.8q2.3 3 4.7 6c3.2-2.9 6.8-5.4 9.9-8.5 0.1 0 0.3 0.1 0.4 0.1l-0.5 0.4c-1.8 9.5-3.4 19-5.2 28.5-12.4 6.3-26.3 9-40.1 8.6-14.1-0.5-28.1-3.8-40.8-10-4.9-2.4-9.1-6.5-11.2-11.6-4-0.8-7.8-3-9.8-6.7-0.8-1.5-1.6-3.5-0.9-5.3 1-2.2 3.9-2.8 6.1-2.6 3.1 1.6 6.1 3.4 9.1 5.1 1.5 0.7 3.3 0.5 4.9 0.6-5.6-8.4-6.7-18.8-6.1-28.6q0.7-7.2 0.8-14.3c-3.5-6.9-6.9-14.1-7.9-21.8-0.4-3.6-0.1-7.6 2.3-10.5 7.5 6.9 18.6 8.9 28.2 6.1 2.2-2 4.3-4.3 6.5-6.3-1.7 9.2-3.4 18.4-5 27.7q4 0 7.9 0c1.6-8.5 3.1-17 4.7-25.5 4.5 8.4 9 16.9 13.5 25.3 3.3 0.3 6.7 0.1 10.1 0.1-4-6.7-7.8-13.6-11.7-20.3 6.1-0.4 12.2-3.4 15.6-8.5 2.4-3.8 3.6-8.4 3.5-12.9 0-2.7-0.9-5.3-2.3-7.6zm-24.7 1.9c3.8 0.1 7.8-0.2 11.6 0.4 3 0.6 6.2 2.5 7 5.6 0.9 4.4-0.9 9.2-4.5 11.8-5.2 3.6-11.9 3.2-17.9 3.2q1.9-10.5 3.8-21zm21.6 51.9c2.6-3.6 6.8-6 11.3-6.2 2.7-0.2 5.8 0.6 7.6 2.8 2.5 2.4 2.4 6.4 1.1 9.4-1.7 3.9-5.2 6.5-8.8 8.5 2.4 3.1 5 6.1 7.4 9.3q2.9-4.6 5.7-9.2c2.5 0 5 0 7.4 0-2.8 4.7-5.4 9.6-9.4 13.4 1.8 2.3 3.5 4.5 5.3 6.7-2 1.7-4 3.4-6.1 5-1.4-2-3-3.8-4.5-5.8-4.6 3.6-10.1 6.7-16.1 6.5-3.9 0-7.8-1.5-10.2-4.7-2.6-3.7-1.6-8.9 0.9-12.4 2.6-3.4 6.3-5.7 10-7.9-1.4-1.7-2.7-3.5-3.3-5.6-0.9-3.3-0.2-7 1.7-9.8zm5.2 4.2c-0.3 3 1.6 5.4 3.3 7.6 2.2-2.2 5-4.1 5.8-7.3 0.7-2.1-0.6-5-3-5.3-3.1-0.7-6 2-6.1 5zm-6.5 20.6c-1.1 2.1-1.2 4.9 0.5 6.7 2.2 2.2 5.6 2.4 8.4 1.6 2.2-0.6 3.9-2.2 5.5-3.7-2.8-3.4-5.5-6.9-8.3-10.3-2.3 1.6-4.8 3.1-6.1 5.7zm10.2-18.4c-0.8-1.7 0-4.1 2.1-4 0.1 1.5-0.7 3.2-2.1 4zm-7.5 22.4c-0.3-2.1 1.2-3.8 2.7-5q2.1 2.6 4.2 5.2c-2.1 1.2-5.1 1.7-6.9-0.2zm37 10.7c6.4 0.2 13.4-1 19.2 2.3 4.6 2.5 7 7.8 7.1 12.9 0.3 9-4.4 18.5-12.7 22.5-6.5 3.3-13.9 2.2-20.9 2.4q3.6-20.1 7.3-40.1z"/>
			<path id="B-Element" fill-rule="evenodd" class="s1" d="m1184 482.9c5.8 0 11.6-0.1 17.4 0 3.7 0.1 7.6 0.5 10.8 2.5 0.5 0.2 1.1 0.8 1.7 0.6 11-2.7 22.4-3.5 33.6-2.4 7.5 1 14.8 3.4 21.8 6.5 8.9 4 17.5 9 24.7 15.7 6 5.9 11 13.1 13.2 21.3 0.7 2.4 0.7 4.9 0.9 7.4-7.5-3.4-15.4-6.3-23.6-7.8 9.7 3.6 18.1 10.7 23.4 19.6 4.2 7.2 6.7 15.5 7.2 23.9 0.1 2.4 0.2 4.9-0.4 7.2-0.5 1.7-2.9 3.1-4.3 1.7-9.6-7.4-21.5-11.2-33.4-12.7 9.6 6 16.1 15.9 19.8 26.4 3.1 9 4.5 18.8 3.5 28.3-0.2 2.1-0.6 4.2-1.4 6.2-0.7 1.9-2 3.3-3.2 4.9-4.2-6.7-10.6-11.7-17.7-15.1-5.9 7.5-15.4 11.5-24.8 11.7-6.4 0.2-12.8 0.1-19.1 0.1q1.7-9.3 3.4-18.7c-18.3 8.8-39.5 10.1-59.1 5.6-8.4-2-16.6-4.7-24.2-8.8-4.4-2.4-7.7-6.2-10-10.5-3.3-1.3-6.6-2.8-8.8-5.6-2-2.6-3.7-6.1-2.6-9.4 1.2-3.2 4.9-4.6 8.1-4.5 1.1-0.1 2.1 0.6 3 1.1 2.2 1.3 4.5 2.5 6.7 3.9-4.3-9.4-4.6-20.2-3.5-30.4 0.2-2.3 0.3-4.7 0.4-7.1 0-0.7 0.1-1.4-0.2-2.1-3.4-6.6-6.4-13.5-7.5-20.9-0.5-3.1-0.5-6.5 0.7-9.5 0.8-2.1 2.3-3.8 3.7-5.4 4.2 4.2 9.6 7.3 15.5 8 3.6 0.5 7.4 0.4 11-0.4 0.6-0.1 1-0.6 1.5-1 2.2-2.3 4.5-4.5 6.9-6.6 0.6-0.4 0.8-1.1 0.9-1.7q2-11 4-22zm31.4 5.3c1.4 2.3 2.3 4.9 2.3 7.6 0.1 4.5-1.1 9.1-3.5 12.9-3.4 5.1-9.5 8.1-15.6 8.5 3.9 6.7 7.7 13.6 11.7 20.3-3.4 0-6.8 0.2-10.1-0.1-4.5-8.4-9-16.9-13.5-25.3-1.6 8.5-3.1 17-4.7 25.5q-3.9 0-7.9 0c1.6-9.3 3.3-18.5 5-27.7-2.2 2-4.3 4.3-6.5 6.3-9.6 2.8-20.7 0.8-28.2-6.1-2.4 2.9-2.7 6.9-2.3 10.5 1 7.7 4.4 14.9 7.9 21.8q-0.1 7.1-0.8 14.3c-0.6 9.8 0.5 20.2 6.1 28.6-1.6-0.1-3.4 0.1-4.9-0.6-3-1.7-6-3.5-9.1-5.1-2.2-0.2-5.1 0.4-6.1 2.6-0.7 1.8 0.1 3.8 0.9 5.3 2 3.7 5.8 5.9 9.8 6.7 2.1 5.1 6.3 9.2 11.2 11.6 12.7 6.2 26.7 9.5 40.8 10 13.8 0.4 27.7-2.3 40.1-8.6 1.8-9.5 3.4-19 5.2-28.5l0.5-0.4c-0.1 0-0.3-0.1-0.4-0.1-3.1 3.1-6.7 5.6-9.9 8.5q-2.4-3-4.7-6c-3.4 2.3-7 4.1-11 4.8-4.4 0.8-9.1 0.4-13-1.8-2.9-1.7-5.4-4.2-6.3-7.5-1.1-4.3 0-9.1 2.4-12.7 2.2-2.9 5.1-5.1 8-7.1-3.1-5-2.6-11.7 0.7-16.4 3.6-5.1 10-8.2 16.3-7.6 3.6 0.2 7.1 2.1 9.1 5.2 2.1 3 2.2 6.9 1.1 10.4-1.1 3.9-4.1 7-7.3 9.4q0.9 1.2 1.8 2.4c1.4-2.3 2.8-4.5 4.2-6.7 4.1 0 8.2 0 12.3 0q0.8 1.4 1.6 2.7c-3.1 4.9-5.6 10.1-9.4 14.4 1.5 2 3.1 3.8 4.5 5.8q0.1-0.9 0.3-1.8c6.2 0 12.3 0 18.5 0 5.8 0.1 12 1.4 16.3 5.5 4.6 4.5 6.6 11.1 6.4 17.4-0.2 6.4-2.6 12.5-5.8 17.9 6.3 3.1 12.2 7.4 16.4 13.1 0.9-1.6 1.4-3.3 1.7-5.1 0.9-5 0.8-10.1 0.3-15-1.1-9.9-4.4-19.7-10.2-27.9-4-5.8-9.4-10.6-15.6-13.9-1.2-0.7-2.5-1.1-3.6-2 2.7-0.9 5.5-0.4 8.3-0.3 12.7 1.4 25.2 5.6 35.5 13.3 0.9-3.3 0.5-6.8 0.2-10.2-0.6-4.1-1.6-8.2-3.1-12-3.4-9.4-10.1-17.6-18.8-22.6-7.3-4.5-15.9-6.6-24.3-7.5 3.6-1.2 7.5-1.5 11.3-1.4 9.6 0.5 19 3.4 27.9 7.1-1.2-7.8-5.5-14.8-10.8-20.6-6.2-6.7-14-11.6-22.1-15.7-9.4-4.6-19.6-8.3-30.2-8.5-9-0.6-18.1 0.4-26.9 2.4zm-24.7 1.9q-1.9 10.5-3.8 21c6 0 12.7 0.4 17.9-3.2 3.6-2.6 5.4-7.4 4.5-11.8-0.8-3.1-4-5-7-5.6-3.8-0.6-7.8-0.3-11.6-0.4zm21.6 51.9c-1.9 2.8-2.6 6.5-1.7 9.8 0.6 2.1 1.9 3.9 3.3 5.6-3.7 2.2-7.4 4.5-10 7.9-2.5 3.5-3.5 8.7-0.9 12.4 2.4 3.2 6.3 4.7 10.2 4.7 6 0.2 11.5-2.9 16.1-6.5 1.5 2 3.1 3.8 4.5 5.8 2.1-1.6 4.1-3.3 6.1-5-1.8-2.2-3.5-4.4-5.3-6.7 4-3.8 6.6-8.7 9.4-13.4-2.4 0-4.9 0-7.4 0q-2.8 4.6-5.7 9.2c-2.4-3.2-5-6.2-7.4-9.3 3.6-2 7.1-4.6 8.8-8.5 1.3-3 1.4-7-1.1-9.4-1.8-2.2-4.9-3-7.6-2.8-4.5 0.2-8.7 2.6-11.3 6.2zm38.4 39.5q-3.7 20-7.3 40.1c7-0.2 14.4 0.9 20.9-2.4 8.3-4 13-13.5 12.7-22.5-0.1-5.1-2.5-10.4-7.1-12.9-5.8-3.3-12.8-2.1-19.2-2.3zm-33.2-35.3c0.1-3 3-5.7 6.1-5 2.4 0.3 3.7 3.2 3 5.3-0.8 3.2-3.6 5.1-5.8 7.3-1.7-2.2-3.6-4.6-3.3-7.6zm3.7 2.2c1.4-0.8 2.2-2.5 2.1-4-2.1-0.1-2.9 2.3-2.1 4zm-10.2 18.4c1.3-2.6 3.8-4.1 6.1-5.7 2.8 3.4 5.5 6.9 8.3 10.3-1.6 1.5-3.3 3.1-5.5 3.7-2.8 0.8-6.2 0.6-8.4-1.6-1.7-1.8-1.6-4.6-0.5-6.7zm2.7 4c1.8 1.9 4.8 1.4 6.9 0.2q-2.1-2.6-4.2-5.2c-1.5 1.2-3 2.9-2.7 5z"/>
		</g>
	</g>
</svg>