<svg version="1.2" xmlns="http://www.w3.org/2000/svg" viewBox="0 0 1920 1080" width="1920" height="1080">
	<title>WRD_Developed-By-WerehogRD-svg</title>
	<style>
		.s0 { fill: #767676 } 
		.s1 { fill: #ffffff } 
		.s2 { fill: #000000 } 
		.s3 { fill: #000001 } 
	</style>
	<g id="Dev-By-WRD_Logo">
		<path id="BG" class="s0" d="m0 0h1920v1080h-1920z"/>
		<path id="DEVELOPED BY" fill-rule="evenodd" class="s1" d="m108.6 211.1h28.6c18.9-0.4 35.3 14.4 34.9 32.6 0.4 18-16 32.8-34.9 32.4h-28.6zm20.2 18v29h7.6q6.3 0 10.6-4.2 4.5-4.1 4.5-10.3 0-6.1-4.5-10.3-4.3-4.2-10.6-4.2zm195.9 0.1h-34.3v5.4h32v17.2h-32v6.2h34.8v18.1h-55v-65h54.5zm143.6 46.9h-26.5l-23.7-65h24.2l12.8 41.2 13-41.2h24.2zm174.2-46.9h-34.3v5.3h32v17.2h-32v6.3h34.8v18.1h-55v-65.1h54.5zm117.4 28.8h30.5v18.2h-50.8v-65.1h20.3zm157.9-47.8q9.6 0 17.5 4.4c5.4 3 9.7 7.1 12.8 12.2 3.1 5.1 4.7 10.8 4.7 16.8 0 12.2-6.7 23.1-17.5 29q-7.9 4.5-17.5 4.5c-12.7 0-24-6.4-30.3-16.7-3.1-5.1-4.7-10.8-4.7-16.8 0-12.2 6.7-23 17.4-29q8.1-4.4 17.6-4.4zm-10.1 43.7q3.9 4.2 10.2 4.2c5.3 0 9.9-2.8 12.1-7.2 2.4-4.4 2.4-10.2 0-14.5-2.2-4.5-6.7-7.3-12.2-7.3-8.3 0-13.9 6.5-13.9 14.5 0 4.1 1.3 7.5 3.8 10.3zm143.2-42.8h29c20.2 0 29.2 7.5 29.2 23.9 0 16.1-9.3 23.5-29 23.5h-9v17.6h-20.2zm20.2 17.4v14.5h8.1c6 0 8.9-2.1 8.9-7.2 0-5.1-2.7-7.3-9-7.3zm190.1 0.8h-34.3v5.3h32v17.2h-32v6.3h34.8v18.1h-55v-65.1h54.5zm97.1-18.1h28.7c18.9-0.4 35.3 14.4 34.9 32.6 0.4 18.1-16 32.8-34.9 32.5h-28.7zm20.3 18v29h7.6q6.3 0 10.6-4.2 4.5-4.2 4.5-10.3 0-6.2-4.5-10.3-4.3-4.2-10.6-4.2zm218.9-18h36.4c13.5 0 21.3 5.7 21.3 16.6 0 6.8-3 11.6-9 14.3 7.9 2.7 11.4 9 11.4 16.2 0 9-5.4 17.9-22.3 17.9h-37.8zm20.2 25.6h10.2c4.1 0 6.2-1.5 6.2-4.6 0-3.1-2.1-4.5-6.2-4.5h-10.2zm0 23h12.5c8.6 0.5 8.6-10.2 0-9.7h-12.5zm174.2-5.5v22h-20.3v-21.8l-25.3-43.3h24.2l11.3 21.7 11.5-21.7h23.9z"/>
		<path id="Logo BG Element Fill" class="s2" d="m1330 317h513v526h-513z"/>
		<path id="Logo BG Element" fill-rule="evenodd" class="s1" d="m88.6 294.5c5.4-1.4 11-1.7 16.6-1.7 572.5 0.1 1145 0.2 1717.6 0.1 25.8-1.1 47.4 22.3 47.2 47.6 0.1 159-0.2 318.1 0.1 477.2 0.1 18.9-13.8 34.9-29.8 43.2-12.1 6.3-26.1 4.2-39.3 4.6-566.4 0-1132.9 0-1699.4 0-17.9 0.4-33.9-10.9-44.2-24.8-8.5-13.3-7.3-29.7-7.2-44.8q0.2-225.9 0-451.8c-0.5-22.5 14.8-46.6 38.4-49.6zm1262.5 47.3c-4.9 4.2-8.9 9.8-7.6 16.6-0.1 147.1-0.1 294.2 0 441.4-0.2 10.5 9.5 19.2 19.9 18.9 148.3 0.1 296.7-0.1 445 0.1 9.9 0.1 20.1-9.3 19.7-19.5 0.6-147 0.3-293.9 0.3-440.9 0.9-10.9-8.9-21.7-20-20.4-147.1-0.2-294.2 0-441.2 0-5.3 0.6-12.2-0.8-16.1 3.8z"/>
		<path id="WEREHOG  R&amp;D©ini" fill-rule="evenodd" class="s2" d="m296.2 397.3h43.4l-44.5 168h-37.7l-25.2-108.8h-0.4l-25.2 108.8h-38.9l-43.3-168h43.6l22.4 109.2h0.5l24.7-109.2h33l24.3 109.6h0.4zm155.8 130.4v37.7h-93.4v-168.1h93.4v37.7h-52.3v26.1h50.7v37.7h-50.7v28.9zm110.4-19.6l45.6 57.3h-49l-38.8-54.3h-0.5v54.3h-41.1v-168.1h53.1q11.4 0 18.4 0.5 7.3 0.4 16.8 3.4 9.8 2.7 16.6 8.2 20.7 16.5 20.7 45.8 0 20-11.4 35-11.1 14.8-30.4 17.9zm0.7-50.4q0-11.5-8-17-7.7-5.7-19.7-5.7h-15.7v46.8h15.2q13 0 20.4-5.9 7.8-5.9 7.8-18.2zm157.1 70v37.7h-93.3v-168.1h93.3v37.7h-52.2v26.1h50.6v37.7h-50.6v28.9zm167.3-130.4v168.1h-42.9v-67.3h-55v67.3h-42.9v-168.1h42.9v63.2h55v-63.2zm200.5 84q0 37.1-25.9 62.3-25.9 24.9-63.1 24.9-36.1 0-62.2-24.5-26.2-24.7-26.2-60.6 0-19.1 6.6-35.9 3.4-9.1 10.9-18.8 26.4-34.5 71.1-34.5 37 0 62.9 25.2 25.9 25.2 25.9 61.9zm-42.9 0.3q0-20.2-13-35-12.7-14.8-32.7-14.8-20.2 0-33.1 14.6-12.7 14.3-12.7 34.5 0 20.7 12.9 35.4 12.9 14.5 33.4 14.5 19.7 0 32.4-14.5 12.8-14.7 12.8-34.7zm237.7-3q0 38.6-25.7 64.5-25.4 25.7-64 25.7-37.2 0-63.3-25.5-25.9-25.4-25.9-62.6 0-37.3 26.1-61.8 26.3-24.7 63.8-24.7 27.9 0 52.2 16.5 24.3 16.6 31.8 42.9h-48.1q-12.3-21.8-37.1-21.8-20.2 0-33.1 14.4-12.7 14-12.7 34.5 0 21.3 12.5 35.8 12.7 14.6 33.6 14.6 14.5 0 25.4-6.8 10.9-6.9 14.8-20.2h-50.2v-34.3h99.7q0.2 2.9 0.2 8.8zm-729.7 232.7l45.6 57.2h-49.1l-38.8-54.3h-0.4v54.3h-41.1v-168h53.1q11.4 0 18.4 0.4 7.3 0.5 16.8 3.4 9.8 2.8 16.6 8.2 20.6 16.6 20.6 45.9 0 20-11.3 35-11.1 14.7-30.4 17.9zm0.6-50.4q0-11.6-7.9-17-7.7-5.7-19.8-5.7h-15.6v46.8h15.2q12.9 0 20.4-6 7.7-5.9 7.7-18.1zm174.4 8.8h39.7l-12.9 31.1q-5.5 13-12.7 22.3l22.9 23.6-25.6 25.2-19.8-20.4q-23.6 20.4-50.2 20.4-22.2 0-39.3-13.6-16.8-13.6-16.8-35.2 0-15.2 8-25.4 8.2-10.5 23.2-20.7-15.9-16.3-15.9-36.3 0-18.9 13.6-31.1 13.8-12.3 32.9-12.3 18.4 0 31.1 11.8 13 11.6 13 29.5 0 22.5-23.2 38.6l19.7 20zm-42.9-31.3q0-4.6-2.7-7.5-2.5-3.2-7-3.2-4.6 0-7.5 3.2-2.7 3.2-2.7 7.9 0 8.2 9.5 18.2 10.4-10.4 10.4-18.6zm9.3 88.3l-26.7-27q-4.1 3.2-6.4 5.4-2.3 2.3-4.5 6.2-2.1 3.8-2.1 7.9 0 7.7 5.7 12.3 5.7 4.3 13.6 4.3 12.7 0 20.4-9.1zm238.2-42.7q0 41.1-22.5 62.9-22.4 21.6-64 21.6h-58.8v-168h55.6q25.7 0 43.2 6.5 17.7 6.4 31.1 24.8 15.4 21.6 15.4 52.2zm-42.9 0.7q0-21.1-10.2-33.8-10-12.7-30.7-12.7h-18.6v92.6h18.4q21.1 0 31.1-12.3 10-12.2 10-33.8zm85.9 60.7q0 6.6-4.7 11.3-4.7 4.8-11.3 4.8-6.6 0-11.3-4.8-4.7-4.7-4.7-11.3 0-6.7 4.7-11.3 4.7-4.7 11.4-4.7 6.6 0 11.2 4.7 4.7 4.8 4.7 11.3zm-7.1 9.1q3.6-3.8 3.6-9.1 0-5.2-3.6-9-3.6-3.8-8.9-3.8-5.3 0-8.9 3.8-3.6 3.7-3.6 9 0 5.3 3.6 9.1 3.7 3.8 8.9 3.8 5.3 0 8.9-3.8zm-5.1-7.4h4.5q-0.3 3.5-2.5 5.5-2.2 2-5.8 2-4 0-6.4-2.6-2.3-2.6-2.3-6.7 0-4 2.4-6.7 2.5-2.6 6.5-2.6 3 0 5.4 1.8 2.3 1.9 2.5 4.9h-4.4q-0.8-2.9-3.5-2.9-2.3 0-3.4 1.6-1.1 1.6-1.1 3.9 0 2.4 1.1 3.9 1.1 1.6 3.4 1.6 1.5 0 2.4-1 1-1.1 1.2-2.7zm15.4-17.1h6.9v5.2h-6.9zm0 7.8h6.9v23.2h-6.9zm33.4 8.6v14.6h-6.9v-12.7q0-2.3-0.8-3.6-0.7-1.2-2.9-1.2-2.2 0-3.1 1.3-0.8 1.2-0.8 3.5v12.7h-7v-23.2h6.5v2.4h0.1q2-3.2 6.3-3.2 1.5 0 3.2 0.5 1.7 0.5 2.8 1.5 2.6 2.2 2.6 7.4zm5-16.4h6.9v5.3h-6.9zm0 7.7h6.9v23.2h-6.9z"/>
		<g id="WRnD_Icon">
			<path id="Letters-n-Outline" fill-rule="evenodd" class="s3" d="m1493.9 404.3c0.1-0.1 0.4-0.4 0.5-0.5 14.4 0 28.9-0.1 43.3 0 9.2 0.5 19.1 1.8 26.6 7.8 13.1-3.4 26.6-5.5 40.1-6.5 2.7-0.4 5.5-0.3 8.3-0.4 14.8-0.2 29.6-0.4 44.1 2.6 22.1 4.6 43.1 13.4 62.7 24.3 9.4 5.3 18.6 11.1 27.1 17.8 6.8 5.6 13.6 11.4 19.3 18.2 10.9 12.6 19.6 27.5 23.5 43.8 1.2 5.2 1.4 10.6 1.8 16-16.2-7.2-32.9-13.6-50.3-17.3q-2.7-0.4-5.3-1.1c9.7 4.1 19.1 9.1 27.5 15.6 12.1 9.3 22.2 21.1 29.5 34.5 7.4 13.7 12.2 28.7 14.4 44.2 1.1 7.3 1.2 14.7 0.8 22.2-0.3 3.2-1 6.8-3.9 8.8-1.9 1.1-4.7 2.2-6.6 0.4-20.1-15.7-44.7-24.7-69.7-29.2-3.1-0.4-6.1-1.3-9.2-1.2 2.3 2.5 5.4 4.2 7.9 6.5 8.7 7 16.2 15.4 22.2 24.8 10.5 15.3 17.3 32.9 21.1 51 1.9 8.9 3.3 17.9 3.4 26.9 0.5 3.6 0.4 7.3 0.3 11-0.5 3.4-0.2 6.8-0.8 10.2-0.6 5.2-1.5 10.5-3.4 15.4-1.7 4.2-4.8 7.6-7.5 11.2-2.1-2.1-3.4-4.8-5.3-7-6-8-13.5-14.7-21.9-20.3-5-3.1-9.9-6.3-15.4-8.7-12.6 16.2-32.6 25.7-52.8 27.6-5.8 0.7-11.7 0.5-17.5 0.6-11.6 0-23.3 0-34.8-0.1 2.6-14.8 5.4-29.6 8-44.5-19.5 9.1-40.5 15.2-61.8 17.6-13.1 1.8-26.4 1.6-39.6 1.3-23.6-1.4-47-6.3-69.3-14.1-10-3.6-19.8-7.7-29.1-12.9-9.5-5.3-17.4-13.5-22.5-23.1-0.6-1-1-2.3-2.2-2.5-8.1-2.3-15.7-7-20.8-13.7-3.2-4.7-5.8-10-6.3-15.7-0.2-4.7 2.1-9.2 5.7-12.2 4.5-3.4 10.3-4.4 15.8-4.3 1.7-0.1 3.1 0.9 4.4 1.7 5.8 3.4 11.7 6.6 17.4 10-2.3-6-4.6-12-6-18.3-1.9-7.9-2.7-15.9-3.1-24-1.5-14.6 1.8-29 1.7-43.6 0-3.1 1.1-6.4-0.5-9.3-3.9-7.3-7.3-14.8-10.3-22.5-4-10.3-7.1-21.1-8-32.3-0.2-5.9 0.1-12 2.4-17.6 1.8-4.9 5.3-8.8 8.7-12.7 2.7 2.3 5.2 4.7 8 6.8 9.9 7.8 22.2 12.2 34.8 12.9 7.2 0.3 14.5 0.1 21.5-1.9 2-0.9 3.3-2.8 4.9-4.2 4.9-4.8 9.6-9.6 14.9-13.9 1.5-1 1.5-3 1.9-4.6 3.2-17.1 6.2-34.3 9.4-51.5zm112.5 6.6c-12.6 0.7-25.1 2.9-37.4 5.5 2.8 4.3 4.8 9.1 5.4 14.2 0.3 5.5 0.4 11.1-0.9 16.6-1.9 8.9-5.6 17.8-12.1 24.3-7.2 7.7-17.3 12.1-27.6 13.9-1.7 0.2-3.4 0.2-5 0.8 1.3 1.4 2.2 3.2 3.2 4.8 5 9 10.1 18 15.2 26.9 3.3 5.6 6.2 11.2 9.6 16.7-7.7 0.1-15.5 0-23.2 0-1.1 0.1-1.3-1.1-1.8-1.8-9-16.9-17.9-33.8-26.9-50.7-1.5-2.7-2.7-5.6-4.4-8.2-2 8.9-3.3 18-5.1 27.1q-3 16.8-6.1 33.6c-6.4 0-12.8 0.1-19.2 0 3.7-19.7 7.2-39.4 10.8-59.1 0.4-2 0.9-4 0.9-6-1.8 0.9-3.1 2.5-4.6 3.8q-3.9 3.7-7.6 7.5c-1.2 1.2-2.4 2.6-4.1 3.1-8.7 2.6-17.8 2.5-26.8 2.2-6.2-0.5-12.4-1.9-18.3-4.1-7.8-2.8-14.9-7.4-21.3-12.7-3 3.2-4.5 7.6-5.4 11.8-0.4 4.5-0.3 9.1 0 13.6 2.3 16.2 8.7 31.5 16 46.1 1 2.3 3.1 4.3 2.7 7-0.1 3.8 0 7.7-0.4 11.5-0.1 7.3-1 14.6-1.7 21.9-0.1 6.9-0.4 13.9 0.3 20.8 0.9 13.7 3.8 27.5 10.2 39.7 1.2 2.4 3 4.6 4 7.1-2.5 0-5 0.1-7.5-0.1-2.9-0.2-5.4-1.9-7.9-3.3-5.7-3.2-11.4-6.6-17.2-9.7-3.8-0.6-7.9-0.2-11.3 1.8-2.2 1.2-3.9 3.4-4.4 5.8-0.7 5.1 1.7 9.8 4.4 13.9 5.1 7.3 13.4 11.5 21.9 13.5 4.3 10.4 12.2 19.2 22 24.9 8.4 4.7 17.3 8.5 26.3 11.8 26.6 9.6 54.7 15.1 82.9 14.8 30.8 0.2 61.7-6.7 89.2-20.6 3.4-17.8 6.5-35.8 9.9-53.7 0.9-5 1.7-10.2 2.9-15.2-8 6.5-16.1 13.1-23.9 19.9-2.9-4-6-7.8-9-11.7-0.7-0.8-1.2-1.7-2-2.3-0.9-0.2-1.6 0.6-2.4 1-8.2 5.3-17.4 9.2-27.2 10.5-4.6 0.4-9.4 0.3-14 0-5.6-0.9-11-2.8-15.7-5.8-4.5-3.1-8.7-6.9-11.2-11.8-3.7-6.8-4-15-2.1-22.4 1.6-7.2 5.4-13.9 10.8-19 4.3-4.1 9-7.9 14.1-11-1.5-2.8-2.8-5.7-3.7-8.7-4-13.2 0.9-28.3 11.1-37.4 7.8-7.2 18.3-11.9 29-11.6 3 0 6.1-0.1 9.1 0.8 7.6 1.8 14.3 6.8 18.1 13.6 2.5 4.8 3.8 10.4 2.9 15.7-0.2 5.3-2.2 10.4-4.8 15-3.4 5.8-8.4 10.4-13.7 14.4 0 0.2-0.1 0.6-0.1 0.8 1.3 1.8 2.7 3.4 4.1 5.1 3.5-5.2 6.7-10.5 10-15.8 9.8 0.1 19.6 0 29.4 0 1.2 2.2 2.8 4.3 3.7 6.6-2.6 4.6-5.4 9.1-8.1 13.6-4.3 7.2-8.6 14.5-14.2 20.8 3.4 4.7 7.3 8.9 10.6 13.7 0.3-1.4 0.8-2.7 0.8-4.1q17.2 0 34.5 0c5 0.1 10.1-0.2 15.1 0.4 9.6 0.5 19.2 2.8 27.4 7.8 7.5 4.7 13.2 11.9 16.7 20 3 6.6 4.4 13.8 5.1 21 0.6 14-3.2 27.8-9.5 40.2-1.2 2.9-3.2 5.5-4.2 8.5 5.1 2.3 9.9 5.4 14.7 8.4 4.7 3.3 9.4 6.6 13.5 10.6 4.2 3.5 7.3 7.9 10.9 12 1.9-2.9 2.8-6.3 3.6-9.7 1.2-5.8 1.9-11.9 1.9-17.9 0.6-25.4-5.1-51.1-16.9-73.7-2.5-5.2-5.9-9.9-9.1-14.7-11-15.4-26.1-27.8-43.4-35.5-0.6-0.3-1.2-0.8-1.8-1.3 1.4-0.5 2.9-1.1 4.4-1.1 4.1-0.2 8.2-0.1 12.3 0 17.2 1.5 34.3 5.5 50.5 11.6 12.3 4.7 24.1 10.8 34.7 18.6 1 0.7 2 1.7 3.4 1.7 0-2.6 0.8-5.1 0.8-7.7 0.2-7.6-0.4-15.2-1.8-22.6-2.9-16.3-9-32.1-18.2-45.8-8.3-12.4-19.3-22.8-32-30.4-17.7-11-38.3-16.3-58.9-18.5 2.2-1.4 4.9-1.5 7.4-2.1 10-1.8 20.3-1.5 30.3-0.2 19.2 2.3 37.7 8.4 55.5 15.9-1.1-8.9-4.3-17.4-8.4-25.2-9.2-17.7-23.5-32.3-39.7-43.7-17.4-12-36.4-21.9-56.3-29.2-13.7-4.7-27.9-8.5-42.4-9.1-4.6-0.7-9.4-0.2-14.1-0.7-2-0.1-4.1-0.1-6.2 0-3.6 0.5-7.3 0.1-11 0.7zm-96.6 10.5q-4.4 24.9-9 49.7c7.1 0.1 14.2 0.2 21.2-0.1 7.8-1 15.8-3.1 22.2-7.8 6.8-5 10.4-13.4 10.9-21.7 0.2-4.5-1-9.3-4.3-12.5-5.1-5.4-12.7-7.7-19.9-7.6-5-0.5-10.1-0.3-15.1-0.3-2 0-4-0.2-6 0.3zm52 124c-3.8 5.7-5.7 12.7-5 19.6 0.8 6.6 4.4 12.5 8.9 17.3-7.5 4.3-14.9 9-21 15.2-6.2 5.8-9.2 14.4-8.9 22.7 0 4.8 2.1 9.3 5.3 12.8 5 5 11.8 8.5 19 9 5.4 0.9 10.9 0.1 16.2-1.2 9.7-2.6 18.3-8 26.1-14.2 3.7 4.6 7.3 9.2 10.8 13.9 2.9-1.9 5.3-4.4 8-6.5 2.3-1.7 4.3-3.7 6.5-5.4-3.8-5.1-7.7-9.9-11.6-14.9-0.3-0.4-0.9-1-0.5-1.5 9.4-9 15.5-20.8 22.1-31.8-5.7 0-11.4-0.1-17.1 0-0.7-0.1-1 0.6-1.3 1.1-4 6.6-8.2 13-12.3 19.6-0.2 0.5-0.7 1.1-1.3 0.6-4.8-6.3-9.9-12.3-14.8-18.5-0.8-1.1-1.7-2-2.2-3.3 5.8-2.9 11-6.8 15.4-11.5 4.8-5.2 7.9-12.3 7.5-19.5 0.4-7.4-4.9-14-11.6-16.6-4.5-2-9.6-1.6-14.4-1.4-9.5 1.2-18.1 6.8-23.8 14.5zm91.8 94.7c-5.7 32-11.6 63.8-17.4 95.7 8.3 0.1 16.7 0 25 0 11.6 0.2 23.3-3.4 32.8-10.3 3.1-2.1 5.5-4.9 8.2-7.5 2.1-2 3.6-4.7 5.3-7.1 2-2.8 3.2-5.9 4.6-9 1.6-3.6 2.4-7.4 3.3-11.2 1.5-5.5 1.5-11.2 1.2-16.8-1-9.1-4.5-18.4-11.7-24.5-6.1-5.5-14.3-8.2-22.4-9-3.1-0.2-6.3-0.1-9.4-0.4-5.3-0.2-10.7-0.1-16.1-0.1-1.2 0-2.3 0-3.4 0.2zm-72.1-95.7c2.2-1.2 4.7-1.2 7.1-1 3.1 0.5 5.8 2.7 6.9 5.6 1.6 3.5 0.8 7.6-1 10.9-2.9 5.6-8 9.5-12.5 13.6-3.5-4.8-7.9-9.9-7.8-16.3-0.4-5.2 2.6-10.5 7.3-12.8zm2.8 7.9c-1.9 1.8-2.5 4.8-1.5 7.2 0.1 1.1 1.6 0.8 2 0 1.8-2.2 3.7-4.8 3.2-7.8-1.3 0-2.7-0.4-3.7 0.6zm-21.4 46.8c3-3.2 6.8-5.4 10.3-7.9 6.6 7.9 12.9 16.1 19.6 24 0.3 0.9-0.7 1.5-1.3 2.1-2.9 2.8-6.1 5.3-9.8 6.7-4.3 1.5-8.9 2.3-13.4 1.3-2.2-0.1-4.1-1.4-6-2.5-3.1-1.7-4.8-5-5.5-8.3-0.8-5.7 2.1-11.4 6.1-15.4zm2.1 13.3c-0.2 2.4 2.1 4 4.2 4.6 4.1 1.2 8.4-0.1 12.2-1.9-0.2-1-0.9-1.8-1.6-2.6-2.8-3.2-5.2-6.6-8-9.7-0.2 0-0.5 0-0.7 0-2.8 2.5-5.9 5.6-6.1 9.6z"/>
			<path id="Main-Shape" fill-rule="evenodd" class="s1" d="m1491.4 400.6c15.1 0 30.2 0 45.2 0 9.3 0.1 19 1.6 27 6.7 2.3 1.7 5-0.1 7.5-0.5 9.7-1.7 19.4-3.5 29.2-4.3 10.3-1.2 20.8-1 31.2-0.9 4.5 0 9 0.5 13.5 0.9 10.7 1 21.1 3.8 31.3 6.9 20.1 6.5 39.2 15.8 57.1 27.1 13.8 8.7 26.5 19.2 36.9 31.9 10.2 12.3 18.2 26.8 22 42.5 0.9 4.2 1.4 8.6 1.6 13 0.4 2.7 0.5 5.5 0.5 8.2-4.1-2.3-8.6-3.8-12.9-5.7-4.8-2-9.6-4-14.6-5.6-2.6-0.9-5-2.2-7.8-2.6 19.8 13.2 35.1 32.9 43.2 55.2 2.5 6.2 4.3 12.6 5.8 19 1.5 8.5 3.1 17.1 2.9 25.8 0.1 4.1 0 8.3-1.1 12.3-1.2 3.3-3.4 6.7-7.1 7.5-1.8 0.4-4 1.4-5.7 0.1-4.5-3.1-8.6-6.5-13.3-9.2-16.8-10.1-35.7-16.7-55-20.1 3.9 3.7 7.9 7.1 11.4 11.1 3.9 4.7 7.9 9.3 11 14.5 13.1 19.5 20.7 42.4 23.7 65.6 1.1 7.8 1.3 15.6 1.2 23.4 0.1 6-0.5 11.9-1.5 17.7-1.2 6-2.9 12.2-6.9 17-2.2 2.7-3.9 5.7-6.4 8.2-2.8-3.9-5.4-7.9-8.4-11.6-6.9-9.3-16.5-16.3-26.3-22.2-2-1.1-4-2.4-6.1-3.2-0.7-0.2-1.1 0.5-1.5 0.9-2.4 2.6-4.7 5.5-7.6 7.5-10.6 8.6-23.3 14.7-36.8 17-6.8 1.4-13.8 1.9-20.7 1.9q-21.9 0-43.8 0c2.5-14.1 5.3-28.2 7.5-42.3-2.7 0.7-5.2 2-7.8 3-25.5 9.6-52.8 14.3-79.9 13.8-16.7-0.1-33.3-2.5-49.5-6q-18.7-4.2-36.6-11.1c-7.8-3-15.5-6.4-22.8-10.5-9.1-5-16.8-12.6-22.2-21.5-0.9-1.3-1.6-2.9-2.8-4-1.5-0.8-3.2-1.2-4.8-1.9-4.8-2.1-9.4-5-13.2-8.7-2.4-2.7-5-5.3-6.5-8.6-2.9-5.2-4.7-11.3-3.7-17.2 0.9-4.7 3.9-8.9 8-11.3 4.5-3.1 10.1-3.8 15.5-4 3.3-0.1 6 2 8.7 3.5 2.5 1.3 4.9 2.9 7.4 4.1-0.2-1.5-0.6-2.9-1-4.3-3.9-13.8-5.4-28.3-5.1-42.7-0.1-7.5 1.1-14.9 1.7-22.4 0-5.2 0.7-10.4 0.5-15.6-0.1-0.8-0.4-1.5-0.7-2.2-8.3-16.3-15.6-33.6-17.9-51.9-1.1-8.1-0.5-16.5 2.8-24 1.1-2.6 2.9-4.8 4.4-7.1 1.8-2.6 4.2-4.5 6.1-7 1.5 1 2.8 2.3 4.1 3.5 5 4.4 10.2 8.5 16.2 11.4 9.2 4.5 19.5 6.4 29.6 6 4.1-0.4 8.4-0.4 12.4-1.6 3.2-0.8 5-3.8 7.3-5.8 3.7-4 7.9-7.4 11.8-11.1 1.2-1 1.6-2.4 1.9-3.8 2.1-12.4 4.4-24.8 6.7-37.2 1.1-5.8 2-11.7 3.2-17.5zm2.5 3.7c-3.2 17.2-6.2 34.4-9.4 51.5-0.4 1.6-0.4 3.6-1.9 4.6-5.3 4.3-10 9.1-14.9 13.9-1.6 1.4-2.9 3.3-4.9 4.2-7 2-14.3 2.2-21.5 1.9-12.6-0.7-24.9-5.1-34.8-12.9-2.8-2.1-5.3-4.5-8-6.8-3.4 3.9-6.9 7.8-8.7 12.7-2.3 5.6-2.6 11.7-2.4 17.6 0.9 11.2 4 22 8 32.3 3 7.7 6.4 15.2 10.3 22.5 1.6 2.9 0.5 6.2 0.5 9.3 0.1 14.6-3.2 29-1.7 43.6 0.4 8.1 1.2 16.1 3.1 24 1.4 6.3 3.7 12.3 6 18.3-5.7-3.4-11.6-6.6-17.4-10-1.3-0.8-2.7-1.8-4.4-1.7-5.5-0.1-11.3 0.9-15.8 4.3-3.6 3-5.9 7.5-5.7 12.2 0.5 5.7 3.1 11 6.3 15.7 5.1 6.7 12.7 11.4 20.8 13.7 1.2 0.2 1.6 1.5 2.2 2.5 5.1 9.6 13 17.8 22.5 23.1 9.3 5.2 19.1 9.3 29.1 12.9 22.3 7.8 45.7 12.7 69.3 14.1 13.2 0.3 26.5 0.5 39.6-1.3 21.3-2.4 42.3-8.5 61.8-17.6-2.6 14.9-5.4 29.7-8 44.5 11.5 0.1 23.2 0.1 34.8 0.1 5.8-0.1 11.7 0.1 17.5-0.6 20.2-1.9 40.2-11.4 52.8-27.6 5.5 2.4 10.4 5.6 15.4 8.7 8.4 5.6 15.9 12.3 21.9 20.3 1.9 2.2 3.2 4.9 5.3 7 2.7-3.6 5.8-7 7.5-11.2 1.9-4.9 2.8-10.2 3.4-15.4 0.6-3.4 0.3-6.8 0.8-10.2 0.1-3.7 0.2-7.4-0.3-11-0.1-9-1.5-18-3.4-26.9-3.8-18.1-10.6-35.7-21.1-51-6-9.4-13.5-17.8-22.2-24.8-2.5-2.3-5.6-4-7.9-6.5 3.1-0.1 6.1 0.8 9.2 1.2 25 4.5 49.6 13.5 69.7 29.2 1.9 1.8 4.7 0.7 6.6-0.4 2.9-2 3.6-5.6 3.9-8.8 0.4-7.5 0.3-14.9-0.8-22.2-2.2-15.5-7-30.5-14.4-44.2-7.3-13.4-17.4-25.2-29.5-34.5-8.4-6.5-17.8-11.5-27.5-15.6q2.6 0.7 5.3 1.1c17.4 3.7 34.1 10.1 50.3 17.3-0.4-5.4-0.6-10.8-1.8-16-3.9-16.3-12.6-31.2-23.5-43.8-5.7-6.8-12.5-12.6-19.3-18.2-8.5-6.7-17.7-12.5-27.1-17.8-19.6-10.9-40.6-19.7-62.7-24.3-14.5-3-29.3-2.8-44.1-2.6-2.8 0.1-5.6 0-8.3 0.4-13.5 1-27 3.1-40.1 6.5-7.5-6-17.4-7.3-26.6-7.8-14.4-0.1-28.9 0-43.3 0-0.1 0.1-0.4 0.4-0.5 0.5zm112.5 6.6c3.7-0.6 7.4-0.2 11-0.7 2.1-0.1 4.2-0.1 6.2 0 4.7 0.5 9.5 0 14.1 0.7 14.5 0.6 28.7 4.4 42.4 9.1 19.9 7.3 38.9 17.2 56.3 29.2 16.2 11.4 30.5 26 39.7 43.7 4.1 7.8 7.3 16.3 8.4 25.2-17.8-7.5-36.3-13.6-55.5-15.9-10-1.3-20.3-1.6-30.3 0.2-2.5 0.6-5.2 0.7-7.4 2.1 20.6 2.2 41.2 7.5 58.9 18.5 12.7 7.6 23.7 18 32 30.4 9.2 13.7 15.3 29.5 18.2 45.8 1.4 7.4 2 15 1.8 22.6 0 2.6-0.8 5.1-0.8 7.7-1.4 0-2.4-1-3.4-1.7-10.6-7.8-22.4-13.9-34.7-18.6-16.2-6.1-33.3-10.1-50.5-11.6-4.1-0.1-8.2-0.2-12.3 0-1.5 0-3 0.6-4.4 1.1 0.6 0.5 1.2 1 1.8 1.3 17.3 7.7 32.4 20.1 43.4 35.5 3.2 4.8 6.6 9.5 9.1 14.7 11.8 22.6 17.5 48.3 16.9 73.7 0 6-0.7 12.1-1.9 17.9-0.8 3.4-1.7 6.8-3.6 9.7-3.6-4.1-6.7-8.5-10.9-12-4.1-4-8.8-7.3-13.5-10.6-4.8-3-9.6-6.1-14.7-8.4 1-3 3-5.6 4.2-8.5 6.3-12.4 10.1-26.2 9.5-40.2-0.7-7.2-2.1-14.4-5.1-21-3.5-8.1-9.2-15.3-16.7-20-8.2-5-17.8-7.3-27.4-7.8-5-0.6-10.1-0.3-15.1-0.4q-17.3 0-34.5 0c0 1.4-0.5 2.7-0.8 4.1-3.3-4.8-7.2-9-10.6-13.7 5.6-6.3 9.9-13.6 14.2-20.8 2.7-4.5 5.5-9 8.1-13.6-0.9-2.3-2.5-4.4-3.7-6.6-9.8 0-19.6 0.1-29.4 0-3.3 5.3-6.5 10.6-10 15.8-1.4-1.7-2.8-3.3-4.1-5.1 0-0.2 0.1-0.6 0.1-0.8 5.3-4 10.3-8.6 13.7-14.4 2.6-4.6 4.6-9.7 4.8-15 0.9-5.3-0.4-10.9-2.9-15.7-3.8-6.8-10.5-11.8-18.1-13.6-3-0.9-6.1-0.8-9.1-0.8-10.7-0.3-21.2 4.4-29 11.6-10.2 9.1-15.1 24.2-11.1 37.4 0.9 3 2.2 5.9 3.7 8.7-5.1 3.1-9.8 6.9-14.1 11-5.4 5.1-9.2 11.8-10.8 19-1.9 7.4-1.6 15.6 2.1 22.4 2.5 4.9 6.7 8.7 11.2 11.8 4.7 3 10.1 4.9 15.7 5.8 4.6 0.3 9.4 0.4 14 0 9.8-1.3 19-5.2 27.2-10.5 0.8-0.4 1.5-1.2 2.4-1 0.8 0.6 1.3 1.5 2 2.3 3 3.9 6.1 7.7 9 11.7 7.8-6.8 15.9-13.4 23.9-19.9-1.2 5-2 10.2-2.9 15.2-3.4 17.9-6.5 35.9-9.9 53.7-27.5 13.9-58.4 20.8-89.2 20.6-28.2 0.3-56.3-5.2-82.9-14.8-9-3.3-17.9-7.1-26.3-11.8-9.8-5.7-17.7-14.5-22-24.9-8.5-2-16.8-6.2-21.9-13.5-2.7-4.1-5.1-8.8-4.4-13.9 0.5-2.4 2.2-4.6 4.4-5.8 3.4-2 7.5-2.4 11.3-1.8 5.8 3.1 11.5 6.5 17.2 9.7 2.5 1.4 5 3.1 7.9 3.3 2.5 0.2 5 0.1 7.5 0.1-1-2.5-2.8-4.7-4-7.1-6.4-12.2-9.3-26-10.2-39.7-0.7-6.9-0.4-13.9-0.3-20.8 0.7-7.3 1.6-14.6 1.7-21.9 0.4-3.8 0.3-7.7 0.4-11.5 0.4-2.7-1.7-4.7-2.7-7-7.3-14.6-13.7-29.9-16-46.1-0.3-4.5-0.4-9.1 0-13.6 0.9-4.2 2.4-8.6 5.4-11.8 6.4 5.3 13.5 9.9 21.3 12.7 5.9 2.2 12.1 3.6 18.3 4.1 9 0.3 18.1 0.4 26.8-2.2 1.7-0.5 2.9-1.9 4.1-3.1q3.7-3.8 7.6-7.5c1.5-1.3 2.8-2.9 4.6-3.8 0 2-0.5 4-0.9 6-3.6 19.7-7.1 39.4-10.8 59.1 6.4 0.1 12.8 0 19.2 0q3.1-16.8 6.1-33.6c1.8-9.1 3.1-18.2 5.1-27.1 1.7 2.6 2.9 5.5 4.4 8.2 9 16.9 17.9 33.8 26.9 50.7 0.5 0.7 0.7 1.9 1.8 1.8 7.7 0 15.5 0.1 23.2 0-3.4-5.5-6.3-11.1-9.6-16.7-5.1-8.9-10.2-17.9-15.2-26.9-1-1.6-1.9-3.4-3.2-4.8 1.6-0.6 3.3-0.6 5-0.8 10.3-1.8 20.4-6.2 27.6-13.9 6.5-6.5 10.2-15.4 12.1-24.3 1.3-5.5 1.2-11.1 0.9-16.6-0.6-5.1-2.6-9.9-5.4-14.2 12.3-2.6 24.8-4.8 37.4-5.5zm-96.6 10.5c2-0.5 4-0.3 6-0.3 5 0 10.1-0.2 15.1 0.3 7.2-0.1 14.8 2.2 19.9 7.6 3.3 3.2 4.5 8 4.3 12.5-0.5 8.3-4.1 16.7-10.9 21.7-6.4 4.7-14.4 6.8-22.2 7.8-7 0.3-14.1 0.2-21.2 0.1q4.6-24.8 9-49.7zm52 124c5.7-7.7 14.3-13.3 23.8-14.5 4.8-0.2 9.9-0.6 14.4 1.4 6.7 2.6 12 9.2 11.6 16.6 0.4 7.2-2.7 14.3-7.5 19.5-4.4 4.7-9.6 8.6-15.4 11.5 0.5 1.3 1.4 2.2 2.2 3.3 4.9 6.2 10 12.2 14.8 18.5 0.6 0.5 1.1-0.1 1.3-0.6 4.1-6.6 8.3-13 12.3-19.6 0.3-0.5 0.6-1.2 1.3-1.1 5.7-0.1 11.4 0 17.1 0-6.6 11-12.7 22.8-22.1 31.8-0.4 0.5 0.2 1.1 0.5 1.5 3.9 5 7.8 9.8 11.6 14.9-2.2 1.7-4.2 3.7-6.5 5.4-2.7 2.1-5.1 4.6-8 6.5-3.5-4.7-7.1-9.3-10.8-13.9-7.8 6.2-16.4 11.6-26.1 14.2-5.3 1.3-10.8 2.1-16.2 1.2-7.2-0.5-14-4-19-9-3.2-3.5-5.3-8-5.3-12.8-0.3-8.3 2.7-16.9 8.9-22.7 6.1-6.2 13.5-10.9 21-15.2-4.5-4.8-8.1-10.7-8.9-17.3-0.7-6.9 1.2-13.9 5-19.6zm19.7-1c-4.7 2.3-7.7 7.6-7.3 12.8-0.1 6.4 4.3 11.5 7.8 16.3 4.5-4.1 9.6-8 12.5-13.6 1.8-3.3 2.6-7.4 1-10.9-1.1-2.9-3.8-5.1-6.9-5.6-2.4-0.2-4.9-0.2-7.1 1zm-18.6 54.7c-4 4-6.9 9.7-6.1 15.4 0.7 3.3 2.4 6.6 5.5 8.3 1.9 1.1 3.8 2.4 6 2.5 4.5 1 9.1 0.2 13.4-1.3 3.7-1.4 6.9-3.9 9.8-6.7 0.6-0.6 1.6-1.2 1.3-2.1-6.7-7.9-13-16.1-19.6-24-3.5 2.5-7.3 4.7-10.3 7.9zm21.4-46.8c1-1 2.4-0.6 3.7-0.6 0.5 3-1.4 5.6-3.2 7.8-0.4 0.8-1.9 1.1-2 0-1-2.4-0.4-5.4 1.5-7.2zm-19.3 60.1c0.2-4 3.3-7.1 6.1-9.6 0.2 0 0.5 0 0.7 0 2.8 3.1 5.2 6.5 8 9.7 0.7 0.8 1.4 1.6 1.6 2.6-3.8 1.8-8.1 3.1-12.2 1.9-2.1-0.6-4.4-2.2-4.2-4.6zm88.6 27.7c1.1-0.2 2.2-0.2 3.4-0.2 5.4 0 10.8-0.1 16.1 0.1 3.1 0.3 6.3 0.2 9.4 0.4 8.1 0.8 16.3 3.5 22.4 9 7.2 6.1 10.7 15.4 11.7 24.5 0.3 5.6 0.3 11.3-1.2 16.8-0.9 3.8-1.7 7.6-3.3 11.2-1.4 3.1-2.6 6.2-4.6 9-1.7 2.4-3.2 5.1-5.3 7.1-2.7 2.6-5.1 5.4-8.2 7.5-9.5 6.9-21.2 10.5-32.8 10.3-8.3 0-16.7 0.1-25 0 5.8-31.9 11.7-63.7 17.4-95.7z"/>
		</g>
	</g>
</svg>