<?xml version="1.0" encoding="UTF-8" ?>
<!DOCTYPE svg PUBLIC "-//W3C//DTD SVG 1.1//EN" "http://www.w3.org/Graphics/SVG/1.1/DTD/svg11.dtd">
<svg width="1024pt" height="1024pt" viewBox="0 0 1024 1024" version="1.1" xmlns="http://www.w3.org/2000/svg">
<g id="#000001ff">
<path fill="#000001" opacity="1.00" d=" M 323.27 172.40 C 352.18 172.50 381.09 172.35 410.00 172.48 C 427.86 172.69 446.44 175.43 461.75 185.23 C 466.13 188.59 471.41 185.08 476.10 184.41 C 494.69 181.05 513.31 177.61 532.15 176.04 C 552.02 173.86 572.05 174.19 592.01 174.43 C 600.71 174.40 609.37 175.39 618.03 176.14 C 638.50 178.03 658.40 183.43 678.05 189.24 C 716.63 201.82 753.37 219.71 787.67 241.33 C 814.12 258.07 838.60 278.23 858.50 302.49 C 878.10 326.25 893.50 353.97 900.78 384.04 C 902.48 392.26 903.36 400.64 903.78 409.02 C 904.47 414.28 904.67 419.58 904.65 424.89 C 896.83 420.41 888.29 417.50 880.06 413.92 C 870.81 410.02 861.49 406.28 851.98 403.05 C 847.00 401.42 842.27 398.99 837.08 398.07 C 875.02 423.44 904.34 461.27 919.97 504.12 C 924.68 515.95 928.17 528.23 931.09 540.61 C 934.00 556.92 936.90 573.38 936.67 590.00 C 936.70 597.93 936.61 606.00 934.51 613.71 C 932.28 620.02 927.90 626.54 920.95 628.09 C 917.39 628.83 913.11 630.78 909.89 628.18 C 901.37 622.35 893.34 615.80 884.40 610.60 C 852.12 591.19 815.96 578.49 778.91 572.09 C 786.25 579.07 794.01 585.63 800.69 593.28 C 808.11 602.26 815.82 611.09 821.88 621.09 C 847.06 658.55 861.62 702.51 867.34 747.10 C 869.49 761.97 869.89 777.00 869.65 792.00 C 869.85 803.41 868.58 814.78 866.78 826.03 C 864.42 837.50 861.14 849.30 853.57 858.53 C 849.36 863.70 845.96 869.54 841.17 874.22 C 835.85 866.77 830.85 859.07 825.05 851.97 C 811.76 834.14 793.44 820.84 774.55 809.49 C 770.69 807.35 766.95 804.90 762.82 803.36 C 761.55 802.83 760.75 804.29 759.96 804.97 C 755.38 810.06 751.09 815.54 745.36 819.43 C 725.09 836.01 700.64 847.61 674.80 852.14 C 661.70 854.72 648.33 855.78 634.99 855.69 C 607.02 855.78 579.05 855.72 551.08 855.65 C 555.72 828.56 561.17 801.58 565.47 774.43 C 560.28 775.91 555.44 778.36 550.38 780.22 C 501.58 798.72 449.17 807.66 397.01 806.66 C 365.04 806.60 333.24 801.87 302.05 795.15 C 278.12 789.95 254.69 782.71 231.81 774.03 C 216.84 768.21 202.15 761.63 188.09 753.87 C 170.58 744.15 155.85 729.64 145.40 712.60 C 143.73 709.98 142.45 707.03 140.15 704.88 C 137.28 703.21 133.96 702.53 130.94 701.16 C 121.59 697.16 112.79 691.62 105.50 684.51 C 100.99 679.30 96.03 674.30 93.09 667.97 C 87.44 658.05 83.99 646.39 85.90 634.94 C 87.69 626.00 93.39 617.92 101.22 613.23 C 109.96 607.33 120.77 606.08 131.04 605.65 C 137.32 605.42 142.50 609.36 147.72 612.25 C 152.51 614.85 157.11 617.80 162.04 620.12 C 161.60 617.36 160.90 614.64 160.10 611.97 C 152.47 585.38 149.71 557.60 150.35 530.00 C 150.11 515.61 152.40 501.37 153.45 487.05 C 153.53 477.02 154.94 467.02 154.44 456.98 C 154.32 455.51 153.75 454.14 153.19 452.81 C 137.15 421.47 123.11 388.34 118.71 353.14 C 116.61 337.71 117.77 321.47 124.20 307.14 C 126.29 302.22 129.67 298.02 132.63 293.61 C 135.97 288.63 140.75 284.89 144.36 280.14 C 147.21 282.07 149.66 284.50 152.24 286.76 C 161.68 295.25 171.82 303.19 183.34 308.66 C 200.87 317.26 220.60 320.93 240.04 320.29 C 248.02 319.39 256.17 319.40 263.94 317.19 C 269.98 315.53 273.49 309.90 277.94 305.94 C 284.98 298.28 293.10 291.75 300.63 284.61 C 302.77 282.79 303.69 280.08 304.11 277.39 C 308.24 253.57 312.65 229.79 316.97 206.01 C 319.13 194.81 320.81 183.53 323.27 172.40 M 328.02 179.56 C 321.93 212.51 316.00 245.50 309.91 278.46 C 309.16 281.50 309.21 285.29 306.33 287.23 C 296.22 295.42 287.10 304.73 277.78 313.78 C 274.71 316.60 272.18 320.29 268.26 322.00 C 254.86 325.70 240.83 326.07 227.02 325.55 C 202.94 324.33 179.17 315.79 160.18 300.84 C 154.80 296.87 150.04 292.17 144.95 287.84 C 138.39 295.18 131.69 302.80 128.17 312.15 C 123.80 322.85 123.10 334.58 123.55 346.00 C 125.33 367.33 131.23 388.11 138.95 408.01 C 144.68 422.76 151.24 437.19 158.70 451.15 C 161.80 456.66 159.74 463.08 159.67 469.00 C 159.77 496.93 153.51 524.68 156.38 552.63 C 157.17 568.11 158.78 583.62 162.43 598.73 C 165.08 610.79 169.37 622.37 173.89 633.83 C 162.85 627.29 151.60 621.11 140.55 614.59 C 137.90 613.13 135.21 611.24 132.05 611.44 C 121.46 611.14 110.28 613.17 101.65 619.66 C 94.87 625.38 90.34 634.05 90.74 643.05 C 91.77 653.98 96.62 664.24 102.92 673.09 C 112.71 686.09 127.18 695.03 142.71 699.47 C 145.05 699.89 145.83 702.40 146.94 704.17 C 156.87 722.63 171.89 738.42 190.23 748.66 C 207.99 758.59 226.86 766.40 245.99 773.28 C 288.81 788.39 333.71 797.73 379.01 800.51 C 404.34 801.07 429.81 801.46 454.96 798.01 C 496.01 793.27 536.16 781.60 573.64 764.23 C 568.74 792.71 563.36 821.14 558.21 849.58 C 580.47 849.80 602.74 849.66 625.00 849.71 C 636.21 849.57 647.47 850.01 658.61 848.54 C 697.43 844.91 735.86 826.77 760.10 795.68 C 770.52 800.16 780.05 806.39 789.65 812.38 C 805.62 823.01 820.15 835.95 831.66 851.36 C 835.32 855.59 837.80 860.78 841.84 864.67 C 846.97 857.81 852.95 851.34 856.11 843.25 C 859.85 833.80 861.50 823.70 862.77 813.67 C 863.95 807.18 863.19 800.52 864.22 794.01 C 864.38 787.00 864.60 779.96 863.73 773.00 C 863.41 755.65 860.69 738.43 857.23 721.44 C 849.82 686.67 836.70 652.85 816.66 623.37 C 805.07 605.46 790.75 589.25 774.11 575.87 C 769.25 571.43 763.36 568.22 758.80 563.45 C 764.81 563.11 770.63 565.01 776.57 565.67 C 824.45 574.32 871.68 591.64 910.32 621.78 C 913.90 625.26 919.32 623.12 923.02 620.96 C 928.49 617.18 929.90 610.17 930.49 603.99 C 931.23 589.77 931.03 575.47 928.94 561.38 C 924.79 531.81 915.55 502.88 901.33 476.60 C 887.27 450.93 867.84 428.25 844.60 410.46 C 828.59 398.01 810.57 388.39 791.95 380.47 C 795.25 381.33 798.60 382.01 801.97 382.60 C 835.38 389.69 867.42 401.94 898.57 415.73 C 897.92 405.46 897.48 395.11 895.11 385.04 C 887.65 353.75 870.96 325.22 849.96 301.10 C 839.15 287.90 826.10 276.78 812.93 266.04 C 796.67 253.18 779.04 242.17 761.00 232.00 C 723.34 211.02 683.06 194.09 640.72 185.37 C 612.89 179.50 584.31 179.89 556.01 180.29 C 550.67 180.50 545.30 180.28 540.00 181.02 C 514.09 183.04 488.27 187.10 463.05 193.47 C 448.66 182.09 429.75 179.43 411.99 178.59 C 384.33 178.37 356.67 178.53 329.01 178.51 C 328.76 178.77 328.27 179.30 328.02 179.56 Z" />
<path fill="#000001" opacity="1.00" d=" M 543.95 192.16 C 550.92 191.07 558.02 191.84 565.00 190.84 C 568.99 190.57 573.01 190.65 577.01 190.78 C 585.97 191.90 595.07 190.92 604.03 192.14 C 631.88 193.43 659.12 200.62 685.36 209.74 C 723.59 223.63 759.97 242.59 793.44 265.68 C 824.50 287.57 851.89 315.63 869.53 349.53 C 877.46 364.59 883.71 380.88 885.73 397.86 C 851.61 383.61 816.11 371.80 779.26 367.39 C 759.96 364.96 740.24 364.41 721.02 367.79 C 716.33 369.03 711.10 369.09 706.95 371.82 C 746.32 376.11 785.85 386.28 819.81 407.28 C 844.23 421.95 865.39 441.98 881.28 465.63 C 899.02 492.02 910.61 522.35 916.32 553.56 C 919.00 567.87 920.14 582.43 919.62 596.99 C 919.72 601.98 918.22 606.82 918.14 611.80 C 915.51 611.78 913.59 609.91 911.59 608.48 C 891.28 593.45 868.63 581.82 845.09 572.77 C 813.96 561.02 781.21 553.45 748.07 550.58 C 740.24 550.32 732.40 550.12 724.58 550.49 C 721.62 550.56 718.85 551.65 716.11 552.64 C 717.14 553.66 718.28 554.57 719.61 555.19 C 752.72 569.98 781.76 593.73 802.87 623.20 C 808.90 632.50 815.50 641.48 820.33 651.49 C 842.99 694.87 853.85 744.15 852.71 793.00 C 852.68 804.53 851.47 816.08 849.08 827.37 C 847.48 833.76 845.80 840.34 842.09 845.88 C 835.30 838.06 829.25 829.51 821.21 822.88 C 813.33 815.21 804.32 808.85 795.32 802.59 C 786.12 796.86 777.00 790.88 767.09 786.43 C 769.08 780.66 772.87 775.73 775.27 770.14 C 787.28 746.37 794.60 719.77 793.37 693.00 C 792.12 679.15 789.47 665.23 783.58 652.54 C 776.89 637.09 766.04 623.21 751.60 614.34 C 735.87 604.62 717.35 600.16 699.02 599.25 C 689.40 598.06 679.67 598.70 670.00 598.50 C 647.95 598.48 625.90 598.53 603.85 598.46 C 603.71 601.15 602.90 603.72 602.25 606.32 C 595.95 597.22 588.39 589.08 581.98 580.07 C 592.63 567.95 600.87 554.00 609.12 540.21 C 614.26 531.46 619.67 522.85 624.62 514.00 C 622.92 509.55 619.86 505.71 617.69 501.46 C 598.87 501.45 580.04 501.52 561.23 501.40 C 554.91 511.58 548.62 521.79 542.03 531.80 C 539.35 528.53 536.56 525.34 534.18 521.85 C 534.20 521.49 534.24 520.78 534.27 520.42 C 544.51 512.79 554.08 503.87 560.54 492.73 C 565.63 484.00 569.40 474.19 569.75 464.00 C 571.48 453.71 569.09 442.96 564.27 433.78 C 556.98 420.77 544.01 411.09 529.50 407.68 C 523.81 406.09 517.85 406.27 512.01 406.19 C 491.47 405.71 471.40 414.66 456.48 428.50 C 436.83 445.93 427.47 474.92 435.04 500.31 C 436.84 506.08 439.40 511.56 442.14 516.93 C 432.35 522.93 423.35 530.13 415.07 538.08 C 404.77 547.86 397.53 560.72 394.42 574.57 C 390.84 588.78 391.41 604.53 398.50 617.60 C 403.29 627.00 411.34 634.24 419.95 640.09 C 428.98 646.00 439.36 649.55 449.96 651.34 C 458.95 651.93 468.00 652.14 477.00 651.38 C 495.68 648.83 513.44 641.35 529.18 631.10 C 530.58 630.32 531.94 628.93 533.69 629.26 C 535.31 630.31 536.23 632.16 537.51 633.59 C 543.24 641.16 549.36 648.44 554.94 656.12 C 569.91 643.08 585.27 630.46 600.66 617.90 C 598.33 627.55 596.95 637.41 595.08 647.16 C 588.68 681.49 582.75 715.92 576.17 750.21 C 523.35 776.84 464.06 790.14 405.00 789.74 C 350.82 790.16 296.80 779.61 245.90 761.24 C 228.54 754.90 211.45 747.65 195.35 738.54 C 176.61 727.75 161.40 710.78 153.11 690.77 C 136.87 686.96 120.82 678.95 111.05 664.97 C 105.94 657.13 101.29 647.95 102.61 638.30 C 103.70 633.56 106.88 629.36 111.15 627.02 C 117.66 623.29 125.58 622.44 132.88 623.62 C 144.01 629.59 154.85 636.11 165.87 642.28 C 170.63 644.94 175.37 648.26 180.99 648.62 C 185.74 648.94 190.51 648.86 195.27 648.78 C 193.37 643.91 189.93 639.86 187.67 635.18 C 175.36 611.74 169.79 585.26 168.07 559.02 C 166.83 545.73 167.37 532.33 167.60 519.01 C 168.84 505.02 170.67 491.07 170.71 476.99 C 171.59 469.69 171.39 462.31 171.65 454.97 C 172.33 449.81 168.31 445.93 166.38 441.53 C 152.39 413.56 140.00 384.20 135.63 353.03 C 135.02 344.36 134.89 335.62 135.63 326.96 C 137.35 318.81 140.23 310.44 146.02 304.25 C 158.32 314.41 171.87 323.36 186.98 328.75 C 198.25 332.91 210.06 335.55 222.02 336.60 C 239.26 337.18 256.85 337.30 273.54 332.33 C 276.83 331.42 279.11 328.75 281.41 326.41 C 286.14 321.47 291.00 316.66 295.97 311.97 C 298.77 309.38 301.30 306.37 304.80 304.69 C 304.69 308.59 303.78 312.38 303.06 316.19 C 296.07 353.96 289.42 391.80 282.25 429.54 C 294.54 429.82 306.84 429.67 319.14 429.57 C 323.07 408.07 326.98 386.56 330.94 365.05 C 334.24 347.73 336.90 330.27 340.61 313.03 C 343.83 318.06 346.18 323.58 349.04 328.82 C 366.31 361.25 383.46 393.74 400.71 426.18 C 401.68 427.48 402.12 429.87 404.18 429.65 C 419.05 429.70 433.93 429.84 448.80 429.55 C 442.27 419.13 436.56 408.22 430.32 397.62 C 420.57 380.40 410.68 363.27 401.02 346.00 C 399.19 342.79 397.52 339.45 395.06 336.68 C 398.09 335.47 401.37 335.56 404.57 335.20 C 424.24 331.70 443.76 323.37 457.57 308.57 C 470.05 295.95 477.21 278.99 480.78 261.82 C 483.18 251.40 483.13 240.62 482.53 230.01 C 481.29 220.27 477.50 210.94 472.13 202.75 C 495.81 197.67 519.75 193.45 543.95 192.16 Z" />
<path fill="#000001" opacity="1.00" d=" M 358.57 212.28 C 362.31 211.32 366.19 211.79 370.00 211.70 C 379.64 211.78 389.31 211.34 398.92 212.33 C 412.78 212.18 427.44 216.48 437.10 226.84 C 443.46 233.05 445.77 242.36 445.41 251.01 C 444.49 266.88 437.63 283.04 424.57 292.63 C 412.16 301.51 396.97 305.69 381.99 307.45 C 368.41 308.04 354.81 307.88 341.23 307.76 C 347.16 275.96 352.93 244.13 358.57 212.28 Z" />
<path fill="#000001" opacity="1.00" d=" M 458.36 450.27 C 469.22 435.62 485.75 424.89 503.97 422.47 C 513.23 422.04 522.97 421.30 531.67 425.16 C 544.44 430.12 554.64 442.89 553.88 457.01 C 554.72 470.87 548.78 484.42 539.49 494.49 C 531.08 503.50 521.01 511.04 510.01 516.59 C 510.81 519.00 512.68 520.81 514.18 522.81 C 523.59 534.74 533.43 546.33 542.61 558.43 C 543.76 559.37 544.61 558.23 545.14 557.26 C 552.89 544.64 561.04 532.28 568.67 519.59 C 569.31 518.73 569.90 517.34 571.22 517.51 C 582.14 517.41 593.07 517.47 604.00 517.47 C 591.23 538.68 579.65 561.25 561.49 578.50 C 560.73 579.52 561.99 580.62 562.49 581.47 C 569.92 590.99 577.58 600.33 584.81 610.00 C 580.53 613.32 576.66 617.13 572.37 620.44 C 567.11 624.41 562.56 629.28 556.98 632.83 C 550.31 623.80 543.25 615.03 536.23 606.27 C 521.28 618.10 504.67 628.49 486.07 633.38 C 475.95 635.94 465.34 637.46 454.96 635.65 C 441.19 634.69 428.23 628.12 418.50 618.48 C 412.51 611.78 408.42 603.07 408.37 593.99 C 407.88 578.04 413.65 561.46 425.42 550.42 C 437.12 538.49 451.38 529.45 465.73 521.07 C 457.22 511.92 450.15 500.65 448.68 488.01 C 447.32 474.80 450.93 461.25 458.36 450.27 M 496.19 448.35 C 487.13 452.75 481.37 462.97 482.16 473.00 C 481.82 485.24 490.27 494.98 496.99 504.34 C 505.79 496.43 515.57 488.95 521.07 478.18 C 524.44 471.88 526.07 463.96 522.95 457.25 C 520.84 451.75 515.66 447.38 509.79 446.57 C 505.21 446.15 500.36 446.20 496.19 448.35 M 460.44 553.44 C 452.74 561.04 447.21 571.93 448.72 582.96 C 449.99 589.30 453.35 595.69 459.20 598.87 C 462.83 601.00 466.47 603.54 470.85 603.64 C 479.40 605.68 488.32 604.12 496.47 601.20 C 503.64 598.42 509.82 593.62 515.40 588.43 C 516.43 587.22 518.29 586.11 517.73 584.26 C 504.94 569.14 492.76 553.49 480.17 538.20 C 473.48 543.12 466.15 547.32 460.44 553.44 Z" />
<path fill="#000001" opacity="1.00" d=" M 501.56 463.60 C 503.39 461.75 506.19 462.38 508.52 462.43 C 509.60 468.23 505.81 473.17 502.49 477.49 C 501.74 478.99 498.87 479.57 498.69 477.39 C 496.61 472.78 497.80 466.98 501.56 463.60 Z" />
<path fill="#000001" opacity="1.00" d=" M 464.48 579.02 C 464.78 571.27 470.69 565.22 476.20 560.42 C 476.52 560.44 477.17 560.47 477.49 560.48 C 482.83 566.50 487.57 573.05 492.90 579.09 C 494.16 580.59 495.49 582.16 495.85 584.16 C 488.66 587.62 480.39 590.00 472.47 587.77 C 468.52 586.66 464.14 583.61 464.48 579.02 Z" />
<path fill="#000001" opacity="1.00" d=" M 634.46 632.19 C 636.60 631.70 638.80 631.64 640.99 631.68 C 651.33 631.77 661.67 631.54 672.00 631.81 C 677.97 632.55 684.00 632.30 689.99 632.66 C 705.54 634.25 721.18 639.43 733.04 649.91 C 746.73 661.59 753.54 679.47 755.37 697.00 C 756.02 707.77 755.94 718.72 753.20 729.23 C 751.31 736.46 749.87 743.89 746.71 750.73 C 744.05 756.57 741.74 762.65 738.02 767.93 C 734.73 772.63 731.89 777.72 727.69 781.70 C 722.59 786.60 717.92 792.06 712.03 796.06 C 693.88 809.23 671.37 816.08 649.00 815.81 C 633.06 815.86 617.12 815.98 601.18 815.77 C 612.23 754.57 623.56 693.42 634.46 632.19 Z" />
</g>
<g id="#ffffffff">
<path fill="#ffffff" opacity="1.00" d=" M 328.02 179.56 C 328.27 179.30 328.76 178.77 329.01 178.51 C 356.67 178.53 384.33 178.37 411.99 178.59 C 429.75 179.43 448.66 182.09 463.05 193.47 C 488.27 187.10 514.09 183.04 540.00 181.02 C 545.30 180.28 550.67 180.50 556.01 180.29 C 584.31 179.89 612.89 179.50 640.72 185.37 C 683.06 194.09 723.34 211.02 761.00 232.00 C 779.04 242.17 796.67 253.18 812.93 266.04 C 826.10 276.78 839.15 287.90 849.96 301.10 C 870.96 325.22 887.65 353.75 895.11 385.04 C 897.48 395.11 897.92 405.46 898.57 415.73 C 867.42 401.94 835.38 389.69 801.97 382.60 C 798.60 382.01 795.25 381.33 791.95 380.47 C 810.57 388.39 828.59 398.01 844.60 410.46 C 867.84 428.25 887.27 450.93 901.33 476.60 C 915.55 502.88 924.79 531.81 928.94 561.38 C 931.03 575.47 931.23 589.77 930.49 603.99 C 929.90 610.17 928.49 617.18 923.02 620.96 C 919.32 623.12 913.90 625.26 910.32 621.78 C 871.68 591.64 824.45 574.32 776.57 565.67 C 770.63 565.01 764.81 563.11 758.80 563.45 C 763.36 568.22 769.25 571.43 774.11 575.87 C 790.75 589.25 805.07 605.46 816.66 623.37 C 836.70 652.85 849.82 686.67 857.23 721.44 C 860.69 738.43 863.41 755.65 863.73 773.00 C 864.60 779.96 864.38 787.00 864.22 794.01 C 863.19 800.52 863.95 807.18 862.77 813.67 C 861.50 823.70 859.85 833.80 856.11 843.25 C 852.95 851.34 846.97 857.81 841.84 864.67 C 837.80 860.78 835.32 855.59 831.66 851.36 C 820.15 835.95 805.62 823.01 789.65 812.38 C 780.05 806.39 770.52 800.16 760.10 795.68 C 735.86 826.77 697.43 844.91 658.61 848.54 C 647.47 850.01 636.21 849.57 625.00 849.71 C 602.74 849.66 580.47 849.80 558.21 849.58 C 563.36 821.14 568.74 792.71 573.64 764.23 C 536.16 781.60 496.01 793.27 454.96 798.01 C 429.81 801.46 404.34 801.07 379.01 800.51 C 333.71 797.73 288.81 788.39 245.99 773.28 C 226.86 766.40 207.99 758.59 190.23 748.66 C 171.89 738.42 156.87 722.63 146.94 704.17 C 145.83 702.40 145.05 699.89 142.71 699.47 C 127.18 695.03 112.71 686.09 102.92 673.09 C 96.62 664.24 91.77 653.98 90.74 643.05 C 90.34 634.05 94.87 625.38 101.65 619.66 C 110.28 613.17 121.46 611.14 132.05 611.44 C 135.21 611.24 137.90 613.13 140.55 614.59 C 151.60 621.11 162.85 627.29 173.89 633.83 C 169.37 622.37 165.08 610.79 162.43 598.73 C 158.78 583.62 157.17 568.11 156.38 552.63 C 153.51 524.68 159.77 496.93 159.67 469.00 C 159.74 463.08 161.80 456.66 158.70 451.15 C 151.24 437.19 144.68 422.76 138.95 408.01 C 131.23 388.11 125.33 367.33 123.55 346.00 C 123.10 334.58 123.80 322.85 128.17 312.15 C 131.69 302.80 138.39 295.18 144.95 287.84 C 150.04 292.17 154.80 296.87 160.18 300.84 C 179.17 315.79 202.94 324.33 227.02 325.55 C 240.83 326.07 254.86 325.70 268.26 322.00 C 272.18 320.29 274.71 316.60 277.78 313.78 C 287.10 304.73 296.22 295.42 306.33 287.23 C 309.21 285.29 309.16 281.50 309.91 278.46 C 316.00 245.50 321.93 212.51 328.02 179.56 M 543.95 192.16 C 519.75 193.45 495.81 197.67 472.13 202.75 C 477.50 210.94 481.29 220.27 482.53 230.01 C 483.13 240.62 483.18 251.40 480.78 261.82 C 477.21 278.99 470.05 295.95 457.57 308.57 C 443.76 323.37 424.24 331.70 404.57 335.20 C 401.37 335.56 398.09 335.47 395.06 336.68 C 397.52 339.45 399.19 342.79 401.02 346.00 C 410.68 363.27 420.57 380.40 430.32 397.62 C 436.56 408.22 442.27 419.13 448.80 429.55 C 433.93 429.84 419.05 429.70 404.18 429.65 C 402.12 429.87 401.68 427.48 400.71 426.18 C 383.46 393.74 366.31 361.25 349.04 328.82 C 346.18 323.58 343.83 318.06 340.61 313.03 C 336.90 330.27 334.24 347.73 330.94 365.05 C 326.98 386.56 323.07 408.07 319.14 429.57 C 306.84 429.67 294.54 429.82 282.25 429.54 C 289.42 391.80 296.07 353.96 303.06 316.19 C 303.78 312.38 304.69 308.59 304.80 304.69 C 301.30 306.37 298.77 309.38 295.97 311.97 C 291.00 316.66 286.14 321.47 281.41 326.41 C 279.11 328.75 276.83 331.42 273.54 332.33 C 256.85 337.30 239.26 337.18 222.02 336.60 C 210.06 335.55 198.25 332.91 186.98 328.75 C 171.87 323.36 158.32 314.41 146.02 304.25 C 140.23 310.44 137.35 318.81 135.63 326.96 C 134.89 335.62 135.02 344.36 135.63 353.03 C 140.00 384.20 152.39 413.56 166.38 441.53 C 168.31 445.93 172.33 449.81 171.65 454.97 C 171.39 462.31 171.59 469.69 170.71 476.99 C 170.67 491.07 168.84 505.02 167.60 519.01 C 167.37 532.33 166.83 545.73 168.07 559.02 C 169.79 585.26 175.36 611.74 187.67 635.18 C 189.93 639.86 193.37 643.91 195.27 648.78 C 190.51 648.86 185.74 648.94 180.99 648.62 C 175.37 648.26 170.63 644.94 165.87 642.28 C 154.85 636.11 144.01 629.59 132.88 623.62 C 125.58 622.44 117.66 623.29 111.15 627.02 C 106.88 629.36 103.70 633.56 102.61 638.30 C 101.29 647.95 105.94 657.13 111.05 664.97 C 120.82 678.95 136.87 686.96 153.11 690.77 C 161.40 710.78 176.61 727.75 195.35 738.54 C 211.45 747.65 228.54 754.90 245.90 761.24 C 296.80 779.61 350.82 790.16 405.00 789.74 C 464.06 790.14 523.35 776.84 576.17 750.21 C 582.75 715.92 588.68 681.49 595.08 647.16 C 596.95 637.41 598.33 627.55 600.66 617.90 C 585.27 630.46 569.91 643.08 554.94 656.12 C 549.36 648.44 543.24 641.16 537.51 633.59 C 536.23 632.16 535.31 630.31 533.69 629.26 C 531.94 628.93 530.58 630.32 529.18 631.10 C 513.44 641.35 495.68 648.83 477.00 651.38 C 468.00 652.14 458.95 651.93 449.96 651.34 C 439.36 649.55 428.98 646.00 419.95 640.09 C 411.34 634.24 403.29 627.00 398.50 617.60 C 391.41 604.53 390.84 588.78 394.42 574.57 C 397.53 560.72 404.77 547.86 415.07 538.08 C 423.35 530.13 432.35 522.93 442.14 516.93 C 439.40 511.56 436.84 506.08 435.04 500.31 C 427.47 474.92 436.83 445.93 456.48 428.50 C 471.40 414.66 491.47 405.71 512.01 406.19 C 517.85 406.27 523.81 406.09 529.50 407.68 C 544.01 411.09 556.98 420.77 564.27 433.78 C 569.09 442.96 571.48 453.71 569.75 464.00 C 569.40 474.19 565.63 484.00 560.54 492.73 C 554.08 503.87 544.51 512.79 534.27 520.42 C 534.24 520.78 534.20 521.49 534.18 521.85 C 536.56 525.34 539.35 528.53 542.03 531.80 C 548.62 521.79 554.91 511.58 561.23 501.40 C 580.04 501.52 598.87 501.45 617.69 501.46 C 619.86 505.71 622.92 509.55 624.62 514.00 C 619.67 522.85 614.26 531.46 609.12 540.21 C 600.87 554.00 592.63 567.95 581.98 580.07 C 588.39 589.08 595.95 597.22 602.25 606.32 C 602.90 603.72 603.71 601.15 603.85 598.46 C 625.90 598.53 647.95 598.48 670.00 598.50 C 679.67 598.70 689.40 598.06 699.02 599.25 C 717.35 600.16 735.87 604.62 751.60 614.34 C 766.04 623.21 776.89 637.09 783.58 652.54 C 789.47 665.23 792.12 679.15 793.37 693.00 C 794.60 719.77 787.28 746.37 775.27 770.14 C 772.87 775.73 769.08 780.66 767.09 786.43 C 777.00 790.88 786.12 796.86 795.32 802.59 C 804.32 808.85 813.33 815.21 821.21 822.88 C 829.25 829.51 835.30 838.06 842.09 845.88 C 845.80 840.34 847.48 833.76 849.08 827.37 C 851.47 816.08 852.68 804.53 852.71 793.00 C 853.85 744.15 842.99 694.87 820.33 651.49 C 815.50 641.48 808.90 632.50 802.87 623.20 C 781.76 593.73 752.72 569.98 719.61 555.19 C 718.28 554.57 717.14 553.66 716.11 552.64 C 718.85 551.65 721.62 550.56 724.58 550.49 C 732.40 550.12 740.24 550.32 748.07 550.58 C 781.21 553.45 813.96 561.02 845.09 572.77 C 868.63 581.82 891.28 593.45 911.59 608.48 C 913.59 609.91 915.51 611.78 918.14 611.80 C 918.22 606.82 919.72 601.98 919.62 596.99 C 920.14 582.43 919.00 567.87 916.32 553.56 C 910.61 522.35 899.02 492.02 881.28 465.63 C 865.39 441.98 844.23 421.95 819.81 407.28 C 785.85 386.28 746.32 376.11 706.95 371.82 C 711.10 369.09 716.33 369.03 721.02 367.79 C 740.24 364.41 759.96 364.96 779.26 367.39 C 816.11 371.80 851.61 383.61 885.73 397.86 C 883.71 380.88 877.46 364.59 869.53 349.53 C 851.89 315.63 824.50 287.57 793.44 265.68 C 759.97 242.59 723.59 223.63 685.36 209.74 C 659.12 200.62 631.88 193.43 604.03 192.14 C 595.07 190.92 585.97 191.90 577.01 190.78 C 573.01 190.65 568.99 190.57 565.00 190.84 C 558.02 191.84 550.92 191.07 543.95 192.16 M 358.57 212.28 C 352.93 244.13 347.16 275.96 341.23 307.76 C 354.81 307.88 368.41 308.04 381.99 307.45 C 396.97 305.69 412.16 301.51 424.57 292.63 C 437.63 283.04 444.49 266.88 445.41 251.01 C 445.77 242.36 443.46 233.05 437.10 226.84 C 427.44 216.48 412.78 212.18 398.92 212.33 C 389.31 211.34 379.64 211.78 370.00 211.70 C 366.19 211.79 362.31 211.32 358.57 212.28 M 458.36 450.27 C 450.93 461.25 447.32 474.80 448.68 488.01 C 450.15 500.65 457.22 511.92 465.73 521.07 C 451.38 529.45 437.12 538.49 425.42 550.42 C 413.65 561.46 407.88 578.04 408.37 593.99 C 408.42 603.07 412.51 611.78 418.50 618.48 C 428.23 628.12 441.19 634.69 454.96 635.65 C 465.34 637.46 475.95 635.94 486.07 633.38 C 504.67 628.49 521.28 618.10 536.23 606.27 C 543.25 615.03 550.31 623.80 556.98 632.83 C 562.56 629.28 567.11 624.41 572.37 620.44 C 576.66 617.13 580.53 613.32 584.81 610.00 C 577.58 600.33 569.92 590.99 562.49 581.47 C 561.99 580.62 560.73 579.52 561.49 578.50 C 579.65 561.25 591.23 538.68 604.00 517.47 C 593.07 517.47 582.14 517.41 571.22 517.51 C 569.90 517.34 569.31 518.73 568.67 519.59 C 561.04 532.28 552.89 544.64 545.14 557.26 C 544.61 558.23 543.76 559.37 542.61 558.43 C 533.43 546.33 523.59 534.74 514.18 522.81 C 512.68 520.81 510.81 519.00 510.01 516.59 C 521.01 511.04 531.08 503.50 539.49 494.49 C 548.78 484.42 554.72 470.87 553.88 457.01 C 554.64 442.89 544.44 430.12 531.67 425.16 C 522.97 421.30 513.23 422.04 503.97 422.47 C 485.75 424.89 469.22 435.62 458.36 450.27 M 634.46 632.19 C 623.56 693.42 612.23 754.57 601.18 815.77 C 617.12 815.98 633.06 815.86 649.00 815.81 C 671.37 816.08 693.88 809.23 712.03 796.06 C 717.92 792.06 722.59 786.60 727.69 781.70 C 731.89 777.72 734.73 772.63 738.02 767.93 C 741.74 762.65 744.05 756.57 746.71 750.73 C 749.87 743.89 751.31 736.46 753.20 729.23 C 755.94 718.72 756.02 707.77 755.37 697.00 C 753.54 679.47 746.73 661.59 733.04 649.91 C 721.18 639.43 705.54 634.25 689.99 632.66 C 684.00 632.30 677.97 632.55 672.00 631.81 C 661.67 631.54 651.33 631.77 640.99 631.68 C 638.80 631.64 636.60 631.70 634.46 632.19 Z" />
<path fill="#ffffff" opacity="1.00" d=" M 496.19 448.35 C 500.36 446.20 505.21 446.15 509.79 446.57 C 515.66 447.38 520.84 451.75 522.95 457.25 C 526.07 463.96 524.44 471.88 521.07 478.18 C 515.57 488.95 505.79 496.43 496.99 504.34 C 490.27 494.98 481.82 485.24 482.16 473.00 C 481.37 462.97 487.13 452.75 496.19 448.35 M 501.56 463.60 C 497.80 466.98 496.61 472.78 498.69 477.39 C 498.87 479.57 501.74 478.99 502.49 477.49 C 505.81 473.17 509.60 468.23 508.52 462.43 C 506.19 462.38 503.39 461.75 501.56 463.60 Z" />
<path fill="#ffffff" opacity="1.00" d=" M 460.44 553.44 C 466.15 547.32 473.48 543.12 480.17 538.20 C 492.76 553.49 504.94 569.14 517.73 584.26 C 518.29 586.11 516.43 587.22 515.40 588.43 C 509.82 593.62 503.64 598.42 496.47 601.20 C 488.32 604.12 479.40 605.68 470.85 603.64 C 466.47 603.54 462.83 601.00 459.20 598.87 C 453.35 595.69 449.99 589.30 448.72 582.96 C 447.21 571.93 452.74 561.04 460.44 553.44 M 464.48 579.02 C 464.14 583.61 468.52 586.66 472.47 587.77 C 480.39 590.00 488.66 587.62 495.85 584.16 C 495.49 582.16 494.16 580.59 492.90 579.09 C 487.57 573.05 482.83 566.50 477.49 560.48 C 477.17 560.47 476.52 560.44 476.20 560.42 C 470.69 565.22 464.78 571.27 464.48 579.02 Z" />
</g>
</svg>
